<?xml version="1.0" encoding="UTF-8"?> <svg xmlns="http://www.w3.org/2000/svg" width="48" height="48" viewBox="0 0 48 48" fill="none"> <path d="M42.1369 7.70654H5.8631C2.63033 7.70654 0 10.3369 0 13.5696V34.4299C0 37.6627 2.63033 40.293 5.8631 40.293H42.1369C45.3697 40.293 48 37.6627 48 34.4299V13.5703C48.0006 10.3369 45.3703 7.70654 42.1369 7.70654ZM39.272 11.5315L24 21.3707L8.72803 11.5315H39.272ZM42.1369 36.4687H5.8631C4.73918 36.4687 3.82501 35.5539 3.82501 34.4306V13.6787L22.82 25.8932C22.8455 25.9091 22.8729 25.9199 22.899 25.9346C22.9264 25.9499 22.9545 25.9646 22.9825 25.9786C23.1298 26.0545 23.2815 26.1157 23.4364 26.1558C23.4524 26.1603 23.4683 26.1622 23.4843 26.166C23.6545 26.2062 23.8266 26.231 23.9987 26.231C23.9994 26.231 24 26.231 24 26.231C24.0013 26.231 24.0019 26.231 24.0026 26.231C24.1747 26.231 24.3468 26.2068 24.517 26.166C24.533 26.1622 24.5489 26.1603 24.5648 26.1558C24.7197 26.1157 24.8708 26.0545 25.0187 25.9786C25.0468 25.9646 25.0748 25.9499 25.1022 25.9346C25.1284 25.9199 25.1558 25.9091 25.1813 25.8932L44.1763 13.6787V34.4299C44.1756 35.5539 43.2608 36.4687 42.1369 36.4687Z" fill="#373A36"></path> </svg> 