<?xml version="1.0" encoding="UTF-8" standalone="no"?>
<svg
   xmlns:dc="http://purl.org/dc/elements/1.1/"
   xmlns:cc="http://creativecommons.org/ns#"
   xmlns:rdf="http://www.w3.org/1999/02/22-rdf-syntax-ns#"
   xmlns:svg="http://www.w3.org/2000/svg"
   xmlns="http://www.w3.org/2000/svg"
   viewBox="0 0 3149.6267 666.66669"
   height="666.66669"
   width="3149.6267"
   xml:space="preserve"
   id="svg2"
   version="1.1"><metadata
     id="metadata8"><rdf:RDF><cc:Work
         rdf:about=""><dc:format>image/svg+xml</dc:format><dc:type
           rdf:resource="http://purl.org/dc/dcmitype/StillImage" /></cc:Work></rdf:RDF></metadata><defs
     id="defs6" /><g
     transform="matrix(1.3333333,0,0,-1.3333333,0,666.66667)"
     id="g10"><g
       transform="scale(0.1)"
       id="g12"><g
         transform="scale(1.4492)"
         id="g14"><path
           id="path16"
           style="fill:#2b2e2d;fill-opacity:1;fill-rule:nonzero;stroke:none"
           d="M 4953.48,2621.73 V 838.144 h 399.97 V 2263.72 h 954.7 V 838.144 h 403.18 V 2621.73 Z m 2457.7,-893.4 c 0,367.69 261.25,590.28 596.67,590.28 335.5,0 596.68,-222.59 596.68,-590.28 0,-367.68 -261.18,-590.23 -596.68,-590.23 -335.42,0 -596.67,222.55 -596.67,590.23 m 1596.47,0 c 0,561.23 -457.98,935.36 -999.8,935.36 -541.81,0 -999.79,-374.13 -999.79,-935.36 0,-561.22 457.98,-935.356 999.79,-935.356 541.82,0 999.8,374.136 999.8,935.356 m 732.19,893.4 -238.68,-1277.21 c -19.32,-96.74 -80.67,-138.68 -174.17,-138.68 H 9133.51 V 838.144 h 212.8 c 293.55,0 490.27,138.697 548.31,454.756 l 180.68,967.65 H 10759 V 838.144 h 403.2 V 2621.73 Z m 1809.36,0 V 838.144 h 396.8 v 754.716 h 270.9 c 61.2,-512.82 470.8,-799.886 967.6,-799.886 538.6,0 974,338.676 974,935.356 0,596.67 -435.4,935.36 -974,935.36 -467.6,0 -857.9,-254.83 -951.5,-709.55 h -287 v 667.59 z m 1061.2,-893.4 c 0,367.69 196.8,590.28 574.1,590.28 377.4,0 574.1,-222.59 574.1,-590.28 0,-367.68 -196.7,-590.23 -574.1,-590.23 -377.3,0 -574.1,222.55 -574.1,590.23 m 3689.7,457.98 c -183.8,312.9 -486.9,477.38 -903,477.38 -561.3,0 -996.7,-358.06 -996.7,-935.36 0,-577.34 425.8,-935.356 996.7,-935.356 416.1,0 719.2,164.484 903,477.326 l -312.8,180.64 c -135.5,-193.53 -312.8,-299.95 -596.7,-299.95 -348.3,0 -590.2,232.22 -590.2,577.34 0,351.57 232.2,577.3 590.2,577.3 283.9,0 461.2,-106.42 596.7,-299.91 l 312.8,180.59" /></g><path
         id="path18"
         style="fill:#f9aa24;fill-opacity:1;fill-rule:evenodd;stroke:none"
         d="M 3007.34,4924.16 2701.83,3088.55 c -7.21,-43.68 -54.25,-63.34 -95.31,-47.37 l -918.24,354.76 c -113.67,43.92 -151.68,129.3 -136.05,223.64 l 195.55,1174.7 c 15.76,94.14 79.28,162.65 201.19,167.39 l 983.56,38.27 c 44.06,1.62 82.14,-32.17 74.81,-75.78 M 371.301,3602.58 2024.55,2748.38 c 39.25,-20.3 43.6,-71.1 15.83,-105.3 L 1420.79,1878.1 c -76.69,-94.67 -169.53,-104.66 -254.46,-60.8 L 108.281,2363.91 c -84.863,43.92 -130.406,125.41 -97.5779,242.84 l 265.5509,947.88 c 11.871,42.56 55.797,68.25 95.047,47.95 M 813.586,694.5 2138.67,2000.98 c 31.54,31.07 81.1,19.39 105.11,-17.66 l 534.86,-826.23 c 66.24,-102.38 46.91,-193.801 -21.09,-260.949 L 1909.52,60.1211 C 1841.46,-6.96875 1749.85,-25.0117 1648.38,42.7188 L 829.738,589.27 C 793.02,613.73 782.18,663.43 813.586,694.5 M 3731.59,220.559 2888.8,1879.72 c -20.04,39.44 6.17,83.03 48.67,94.66 l 949.63,258.92 c 117.63,32.05 198.85,-14.07 242.13,-99.33 L 4668.51,1072.3 c 43.27,-85.261 32.69,-178.03 -62.55,-254.198 L 3836.69,203.961 c -34.52,-27.512 -85.19,-22.781 -105.1,16.598 M 5073.55,2825.85 3233.25,2549.52 c -43.73,-6.48 -76.88,32.12 -74.48,76.11 l 53.91,982.92 c 6.69,121.65 76.1,184.18 170.64,198.39 l 1177.55,176.74 c 94.53,14.27 179.26,-25.11 221.43,-139.49 l 340.16,-923.75 c 15.19,-41.4 -5.19,-88.04 -48.91,-94.59" /></g></g></svg>