<?xml version="1.0" encoding="UTF-8"?> <svg xmlns="http://www.w3.org/2000/svg" width="86" height="54" viewBox="0 0 86 54" fill="none"> <path d="M74.5509 26.338V34.4346C74.5509 37.7582 72.9757 41.1213 69.778 44.1536C60.4528 52.9354 40.5737 55.6605 25.3808 50.2339C23.3402 49.5147 21.3684 48.6132 19.4895 47.5403C13.2989 43.9646 9.96734 39.1366 9.98309 34.2219V26.1254C9.98309 31.04 13.2989 35.868 19.4895 39.4437C21.3684 40.5166 23.3402 41.4181 25.3808 42.1373C40.5815 47.5718 60.4528 44.8467 69.778 36.057C73.0072 33.0247 74.543 29.6381 74.5509 26.338Z" fill="url(#paint0_linear_178_176)"></path> <path d="M74.3381 28.4567C74.214 29.0709 74.0401 29.6741 73.8183 30.2603C73.5798 30.8906 73.2927 31.5015 72.9598 32.0875C72.5761 32.7602 72.1417 33.4026 71.6603 34.0092C71.0817 34.7376 70.4498 35.4221 69.77 36.057L69.6282 36.1909C68.3607 37.3481 66.9778 38.3721 65.5012 39.2468C63.1683 40.6222 60.6873 41.7292 58.1056 42.5469C56.0917 43.1933 54.0367 43.7037 51.9544 44.0748C50.5919 44.319 49.2135 44.5159 47.8037 44.6498C46.6223 44.7653 45.4304 44.844 44.228 44.886C43.1359 44.9228 42.0411 44.9228 40.9437 44.886C39.8463 44.8493 38.7962 44.7942 37.7933 44.7207C36.7432 44.6366 35.7062 44.5211 34.6823 44.3741C33.6584 44.2271 32.6083 44.0433 31.5319 43.8228C30.3872 43.5865 29.2557 43.3082 28.1373 42.9879C27.2132 42.7254 26.3022 42.434 25.4043 42.1137L24.1914 41.6569C22.5786 41.0284 21.0148 40.2807 19.513 39.4201C13.3225 35.8444 9.9909 31.0164 10.0066 26.1017V34.1983C10.0066 39.1129 13.3225 43.9409 19.513 47.5167C21.0149 48.3772 22.5787 49.1249 24.1914 49.7535V49.7535L25.4043 50.2103C26.3022 50.5305 27.2132 50.822 28.1373 51.0845C29.2504 51.3995 30.382 51.6778 31.5319 51.9194C32.582 52.1346 33.6321 52.3184 34.6823 52.4707C35.7324 52.6229 36.7694 52.7385 37.7933 52.8172C38.8435 52.9012 39.8936 52.9564 40.9437 52.9826C41.9939 53.0089 43.0886 53.0089 44.228 52.9826C45.4252 52.9406 46.6171 52.8619 47.8037 52.7463C49.2057 52.6046 50.5919 52.4155 51.9544 52.1714C54.0367 51.8005 56.0918 51.2901 58.1056 50.6435C60.6874 49.826 63.1684 48.7189 65.5012 47.3434C66.9778 46.4686 68.3607 45.4446 69.6282 44.2875L69.77 44.1536C70.4501 43.5161 71.0819 42.829 71.6603 42.098C72.1417 41.4913 72.5761 40.8489 72.9598 40.1762C73.293 39.5904 73.5801 38.9794 73.8183 38.349C74.0401 37.7628 74.214 37.1596 74.3381 36.5453C74.4606 35.9407 74.5318 35.3268 74.5508 34.7102V26.6137C74.5322 27.2329 74.461 27.8495 74.3381 28.4567V28.4567Z" fill="url(#paint1_linear_178_176)"></path> <path d="M65.0442 13.0117C75.4248 19.0054 77.764 28.5354 69.7698 36.057C60.4446 44.8388 40.5655 47.5639 25.3726 42.1373C23.332 41.4181 21.3603 40.5166 19.4814 39.4437C9.10074 33.45 6.76155 23.92 14.7557 16.3984C24.0731 7.61664 43.9522 4.89154 59.1451 10.326C61.1881 11.0423 63.1625 11.9412 65.0442 13.0117V13.0117Z" fill="url(#paint2_linear_178_176)"></path> <path d="M61.531 14.7287C70.3128 19.8009 72.2897 27.8581 65.5399 34.2219C57.6639 41.649 40.8249 43.9567 27.9712 39.3571C26.2417 38.75 24.5705 37.9882 22.9778 37.0809C14.196 32.0087 12.2192 23.9516 18.9689 17.5877C26.845 10.1606 43.6761 7.8608 56.5376 12.4525C58.2671 13.0596 59.9383 13.8215 61.531 14.7287V14.7287Z" fill="white"></path> <path d="M60.4915 15.3273C68.8007 20.1238 70.6752 27.7478 64.2798 33.773C56.8134 40.8063 40.8959 42.9801 28.7353 38.6325C27.0984 38.0567 25.5168 37.3344 24.0097 36.4744C15.7005 31.6779 13.8259 24.0539 20.2213 18.0288C27.6878 10.9955 43.5974 8.82166 55.7658 13.1692C57.4027 13.745 58.9844 14.4673 60.4915 15.3273Z" fill="url(#paint3_linear_178_176)"></path> <path d="M32.789 30.0858L36.021 28.0663L38.1444 29.1954L34.9125 31.2149L38.3755 33.0562L41.6074 31.0367L45.6583 33.1906L49.3295 30.8966L45.2786 28.7427L50.55 25.4487L47.0871 23.6074L41.8156 26.9014L39.6922 25.7723L41.9514 24.3606C44.7126 22.6352 46.1628 21.0111 46.302 19.4883C46.4412 17.9655 45.4981 16.6656 43.4726 15.5887C41.5124 14.5464 39.2214 14.1266 36.7274 14.3248C34.2334 14.523 31.5104 15.5066 28.655 17.2908C28.4668 17.4085 28.1543 17.6415 27.5895 17.9944C27.0247 18.3474 26.554 18.6415 26.2402 18.8375C25.6454 19.2471 24.4844 19.9725 22.79 21.0313L32.558 26.2251L29.3261 28.2446L32.789 30.0858ZM32.3389 19.0318C33.7823 18.1299 35.1419 17.5826 36.3222 17.4118C37.5352 17.2584 38.6958 17.44 39.7739 18.0132C41.93 19.1597 41.4379 20.6763 38.4257 22.5585L36.2292 23.931L29.8914 20.5612L32.3389 19.0318Z" fill="white"></path> <defs> <linearGradient id="paint0_linear_178_176" x1="9.95946" y1="39.5776" x2="74.5509" y2="39.5776" gradientUnits="userSpaceOnUse"> <stop offset="0.01" stop-color="#835C1F"></stop> <stop offset="1" stop-color="#D4A835"></stop> </linearGradient> <linearGradient id="paint1_linear_178_176" x1="9.95939" y1="39.5776" x2="74.5508" y2="39.5776" gradientUnits="userSpaceOnUse"> <stop stop-color="#FFB200"></stop> <stop offset="0.427083" stop-color="#FFD100"></stop> <stop offset="1" stop-color="#FFB200"></stop> </linearGradient> <linearGradient id="paint2_linear_178_176" x1="9.98285" y1="26.2277" x2="74.5506" y2="26.2277" gradientUnits="userSpaceOnUse"> <stop stop-color="#FFB200"></stop> <stop offset="0.703125" stop-color="#FFD100"></stop> <stop offset="1" stop-color="#FFB200"></stop> </linearGradient> <linearGradient id="paint3_linear_178_176" x1="16.4093" y1="25.9048" x2="68.1076" y2="25.9048" gradientUnits="userSpaceOnUse"> <stop stop-color="#FFB200"></stop> <stop offset="0.45" stop-color="#FFD100"></stop> <stop offset="1" stop-color="#FFB200"></stop> </linearGradient> </defs> </svg> 