<?xml version="1.0" encoding="UTF-8"?> <svg xmlns="http://www.w3.org/2000/svg" viewBox="0 0 889.26 188.84"> <defs> <style>.cls-1{fill:#373a36;}.cls-2{fill:#fff;fill-rule:evenodd;}</style> </defs> <g id="Слой_2" data-name="Слой 2"> <g id="Слой_1-2" data-name="Слой 1"> <path class="cls-1" d="M270.13,45.34v97.93H292V65H344v78.29h22V45.34Zm134.1,49C404.23,74.19,418.5,62,436.8,62s32.55,12.22,32.55,32.41-14.26,32.41-32.55,32.41-32.62-12.23-32.62-32.41Zm87.13,0c0-30.8-25-51.35-54.61-51.35s-54.59,20.55-54.59,51.35,25,51.35,54.59,51.35,54.55-20.54,54.55-51.35Zm39.95-49-13,70.11c-1.07,5.32-4.41,7.61-9.51,7.61H498.23v20.21h11.61c16.06,0,26.75-7.63,29.92-25l9.86-53.13h37.32v78.11h22V45.34Zm98.75,0v97.93h21.65V101.82h14.77c3.35,28.16,25.69,43.91,52.8,43.91,29.41,0,53.16-18.6,53.16-51.35s-23.81-51.27-53.21-51.27c-25.53,0-46.82,14-51.92,39H651.64V45.34Zm57.9,49C688,74.19,698.7,62,719.28,62s31.3,12.22,31.3,32.41-10.72,32.41-31.33,32.41S688,114.56,688,94.38m201.3-25.15c-10-17.17-26.58-26.12-49.29-26.12-30.62,0-54.39,19.66-54.39,51.35s23.24,51.35,54.39,51.35c22.71,0,39.25-9,49.29-26.2l-17.09-9.93c-7.39,10.63-17.07,16.49-32.56,16.49-19,0-32.2-12.75-32.2-31.71,0-19.29,12.67-31.69,32.2-31.69,15.49,0,25.17,5.84,32.56,16.46Z"></path> <path class="cls-2" d="M113.57,2.88,102,72.13a2.56,2.56,0,0,1-.48,1,2.82,2.82,0,0,1-.88.73,2.75,2.75,0,0,1-1.12.27,2.47,2.47,0,0,1-1.11-.25L63.66,60.6c-4.29-1.62-5.73-4.84-5.14-8.45L65.91,7.78c.58-3.55,3-6.13,7.58-6.31L110.63,0a2.73,2.73,0,0,1,1.17.08,2.6,2.6,0,0,1,1,.61,2.87,2.87,0,0,1,.64,1,2.74,2.74,0,0,1,.13,1.18M14,52.8,76.41,85a2.81,2.81,0,0,1,.84.77,2.86,2.86,0,0,1,.42,1.08A2.65,2.65,0,0,1,77.58,88,2.69,2.69,0,0,1,77,89L53.63,117.87A7.28,7.28,0,0,1,44,120.18L4.09,99.5C.86,97.89-.84,94.77.41,90.33l10-35.79a2.56,2.56,0,0,1,1.38-1.72,2.56,2.56,0,0,1,1.09-.25,2.74,2.74,0,0,1,1.1.23M30.78,162.6l50-49.33a2.47,2.47,0,0,1,1-.56,2.27,2.27,0,0,1,1.13-.07,2.55,2.55,0,0,1,1.06.44,2.65,2.65,0,0,1,.77.86L105,145.14c2.51,3.87,1.78,7.31-.79,9.84l-32,31.59a7.29,7.29,0,0,1-9.86.65L31.39,166.58a2.65,2.65,0,0,1-.86-.77,2.5,2.5,0,0,1-.38-2.2,2.33,2.33,0,0,1,.55-1Zm110.16,17.9-31.82-62.66a2.51,2.51,0,0,1-.23-1.11,2.35,2.35,0,0,1,.29-1.11,2.43,2.43,0,0,1,.73-.89,2.68,2.68,0,0,1,1-.46l35.85-9.78c4.44-1.2,7.51.54,9.14,3.75l20.35,40.11c1.61,3.22,1.25,6.71-2.36,9.58l-29,23.18a2.54,2.54,0,0,1-2.16.69,2.74,2.74,0,0,1-1.08-.42,2.53,2.53,0,0,1-.78-.88m50.58-98.38L122.05,92.56a2.39,2.39,0,0,1-1.13-.15,2.46,2.46,0,0,1-1-.61,2.79,2.79,0,0,1-.61-1,2.58,2.58,0,0,1-.1-1.14l2-37c.25-4.61,2.88-7,6.45-7.52l44.46-6.66c3.56-.55,6.77.95,8.35,5.27l12.89,34.88a2.58,2.58,0,0,1,.22,1.12,2.94,2.94,0,0,1-.28,1.12,2.76,2.76,0,0,1-.73.87,2.7,2.7,0,0,1-1.05.47Z"></path> </g> </g> </svg> 