<?xml version="1.0" encoding="UTF-8"?> <svg xmlns="http://www.w3.org/2000/svg" xmlns:xlink="http://www.w3.org/1999/xlink" id="Layer_1" data-name="Layer 1" viewBox="0 0 102.47 71.24"> <defs> <style>.cls-1{fill:#ef8531;}.cls-2{fill:url(#Безымянный_градиент_193);}.cls-3{fill:url(#linear-gradient);}.cls-4{fill:url(#Безымянный_градиент_167);}.cls-5{fill:url(#linear-gradient-2);}.cls-6{fill:url(#Безымянный_градиент_193-2);}.cls-7{fill:#475250;}.cls-8{fill:#231f20;}.cls-9{fill:#767e81;}.cls-10{fill:url(#Безымянный_градиент_12);}.cls-11{fill:url(#Безымянный_градиент_12-2);}</style> <linearGradient id="Безымянный_градиент_193" x1="188.26" y1="396.04" x2="290.55" y2="396.04" gradientTransform="matrix(-1, 0, 0, 1, 292.35, -379.33)" gradientUnits="userSpaceOnUse"> <stop offset="0" stop-color="#fbb338"></stop> <stop offset="1" stop-color="#f27321"></stop> </linearGradient> <linearGradient id="linear-gradient" x1="587.4" y1="486.9" x2="642.21" y2="486.9" gradientTransform="translate(-587.18 -441.31) rotate(-3.46)" gradientUnits="userSpaceOnUse"> <stop offset="0" stop-color="#f6bb56"></stop> <stop offset="1" stop-color="#f6bb56" stop-opacity="0"></stop> </linearGradient> <linearGradient id="Безымянный_градиент_167" x1="575.43" y1="499.54" x2="630.24" y2="499.54" gradientTransform="translate(-587.18 -441.31) rotate(-3.46)" gradientUnits="userSpaceOnUse"> <stop offset="0" stop-color="#f27321"></stop> <stop offset="1" stop-color="#fbb338"></stop> </linearGradient> <linearGradient id="linear-gradient-2" x1="-3249.94" y1="512.17" x2="-3195.14" y2="512.17" gradientTransform="translate(3242.15 -672.73) rotate(-3.46)" xlink:href="#linear-gradient"></linearGradient> <linearGradient id="Безымянный_градиент_193-2" x1="439.88" y1="420.35" x2="542.16" y2="420.35" gradientTransform="translate(-438.07 -382.64) rotate(0.26)" xlink:href="#Безымянный_градиент_193"></linearGradient> <linearGradient id="Безымянный_градиент_12" x1="459.42" y1="442.77" x2="468.33" y2="442.77" gradientTransform="translate(-438.07 -382.64) rotate(0.26)" gradientUnits="userSpaceOnUse"> <stop offset="0" stop-color="#231f20"></stop> <stop offset="0.33" stop-color="#231f20" stop-opacity="0.85"></stop> <stop offset="0.73" stop-color="#231f20" stop-opacity="0.41"></stop> <stop offset="1" stop-color="#231f20" stop-opacity="0"></stop> </linearGradient> <linearGradient id="Безымянный_градиент_12-2" x1="510.37" y1="442.77" x2="519.28" y2="442.77" xlink:href="#Безымянный_градиент_12"></linearGradient> </defs> <polygon class="cls-1" points="0.18 17.9 23.91 62.11 78.34 62.36 102.47 18.36 0.18 17.9"></polygon> <polygon class="cls-2" points="0 17.65 23.95 13.24 78.38 13.48 102.29 18.11 0 17.65"></polygon> <polygon class="cls-1" points="83.83 12.27 77.41 0 34.01 2.62 29.12 15.57 83.83 12.27"></polygon> <polygon class="cls-3" points="83.61 12.27 77.19 0 33.8 2.62 28.9 15.57 83.61 12.27"></polygon> <polygon class="cls-4" points="72.42 25.6 66 13.34 22.61 15.96 17.72 28.91 72.42 25.6"></polygon> <polygon class="cls-1" points="29.4 40.86 34.3 27.91 77.69 25.29 84.11 37.55 29.4 40.86"></polygon> <polygon class="cls-5" points="84.11 37.55 77.69 25.29 34.3 27.91 29.4 40.86 84.11 37.55"></polygon> <polygon class="cls-6" points="0 17.65 23.73 61.86 78.16 62.11 102.29 18.11 0 17.65"></polygon> <circle class="cls-7" cx="26.34" cy="62.24" r="8.77"></circle> <circle class="cls-8" cx="26.34" cy="62.24" r="4.45"></circle> <circle class="cls-9" cx="23.79" cy="62.23" r="8.77"></circle> <circle class="cls-10" cx="23.79" cy="62.23" r="4.45"></circle> <circle class="cls-7" cx="77.29" cy="62.47" r="8.77"></circle> <circle class="cls-8" cx="77.29" cy="62.47" r="4.45"></circle> <circle class="cls-9" cx="74.75" cy="62.46" r="8.77"></circle> <circle class="cls-11" cx="74.75" cy="62.46" r="4.45"></circle> </svg> 