<?xml version="1.0" encoding="UTF-8"?> <svg xmlns="http://www.w3.org/2000/svg" width="177" height="105" viewBox="0 0 177 105" fill="none"> <path d="M94.5121 61.9429C93.8929 62.2548 93.2086 62.4177 92.515 62.4177C91.8213 62.4177 91.137 62.2548 90.5178 61.9429C90.2758 61.8591 90.0663 61.7055 89.9173 61.496C89.773 61.2865 89.6938 61.0398 89.6938 60.7837C89.6938 60.5323 89.773 60.2809 89.9173 60.0761C90.0663 59.8666 90.2758 59.713 90.5178 59.6292C91.137 59.3173 91.8213 59.1544 92.515 59.1544C93.2086 59.1544 93.8929 59.3173 94.5121 59.6292C94.7542 59.713 94.9637 59.8666 95.1126 60.0761C95.2616 60.2809 95.3407 60.5323 95.3407 60.7837C95.3407 61.0398 95.2616 61.2865 95.1126 61.496C94.9637 61.7055 94.7542 61.8591 94.5121 61.9429Z" fill="#373A36"></path> <path d="M95.3407 60.7744V61.8219C95.3268 62.0779 95.243 62.32 95.0987 62.5295C94.9497 62.7343 94.7495 62.8972 94.5121 62.995C93.8929 63.3069 93.2086 63.4698 92.515 63.4698C91.8213 63.4698 91.137 63.3069 90.5178 62.995C90.2851 62.8972 90.0895 62.7436 89.9406 62.5388C89.7963 62.3386 89.7078 62.0965 89.6938 61.8498V60.7977C89.7171 61.0444 89.8056 61.2818 89.9499 61.482C90.0989 61.6822 90.2944 61.8405 90.5178 61.9429C91.137 62.2548 91.8213 62.4177 92.515 62.4177C93.2086 62.4177 93.8929 62.2548 94.5121 61.9429C94.7495 61.8451 94.9497 61.6869 95.0987 61.4774C95.243 61.2725 95.3268 61.0258 95.3407 60.7744Z" fill="#373A36"></path> <path d="M94.167 23.5598C94.046 23.5551 93.925 23.5225 93.8225 23.462L93.5665 23.2153C93.4734 23.0523 93.4501 22.8615 93.4967 22.6846C93.5432 22.503 93.6596 22.354 93.8179 22.2563L110.624 12.5732C110.749 12.5034 110.852 12.3963 110.926 12.2706C110.996 12.1449 111.033 12.0006 111.033 11.8563V8.56963C111.033 8.38808 111.108 8.21117 111.238 8.08082C111.368 7.95048 111.545 7.88065 111.727 7.88065L111.997 7.9272L112.23 8.07617L112.379 8.30428L112.435 8.56963V11.8563C112.435 12.2473 112.332 12.6337 112.137 12.9689C111.941 13.3087 111.657 13.5927 111.317 13.7836L94.5255 23.4667C94.4138 23.5272 94.2927 23.5598 94.167 23.5598Z" fill="#ED6B06"></path> <path d="M86.1875 23.1594C86.0665 23.1641 85.9455 23.1315 85.843 23.0663L69.0513 13.3832C68.7161 13.1877 68.4415 12.913 68.2459 12.5732C68.0551 12.238 67.948 11.8563 67.948 11.4699V8.56963C67.948 8.38808 68.0225 8.21117 68.1528 8.08082C68.2832 7.95513 68.4554 7.88065 68.6416 7.88065C68.8232 7.88065 69.0001 7.95513 69.1304 8.08082C69.2608 8.21117 69.3353 8.38808 69.3353 8.56963V11.4699C69.3353 11.6189 69.3725 11.7585 69.4424 11.8842C69.5168 12.0099 69.6239 12.117 69.745 12.1868L86.5367 21.8699L86.7415 22.0468L86.8626 22.2889L86.8812 22.5589L86.7881 22.8149L86.5367 23.0709C86.4343 23.1315 86.3132 23.1641 86.1875 23.1594Z" fill="#ED6B06"></path> <path d="M150.57 56.0631C150.449 56.0677 150.328 56.0352 150.221 55.9746L149.97 55.7186L149.877 55.4626L149.895 55.1926L150.016 54.9505L150.221 54.7736L167.013 45.0905C167.139 45.0207 167.241 44.9136 167.316 44.7879C167.39 44.6622 167.427 44.5179 167.427 44.3736V41.9947L167.479 41.7294L167.628 41.5059L167.851 41.357L168.116 41.3011L168.386 41.357L168.61 41.5059L168.759 41.7294L168.81 41.9947V44.3736C168.81 44.76 168.708 45.1417 168.512 45.4816C168.321 45.8121 168.042 46.0914 167.707 46.2916L150.915 55.97C150.813 56.0352 150.692 56.0677 150.57 56.0631Z" fill="#ED6B06"></path> <path d="M25.5947 58.1114C25.4644 58.1114 25.3433 58.0788 25.2316 58.0183L8.45848 48.3352C8.11399 48.1443 7.83467 47.8604 7.63914 47.5205C7.43896 47.1853 7.33655 46.7989 7.33655 46.4079V44.0663L7.38776 43.8056L7.54138 43.5775L7.76484 43.4285L8.03019 43.3773L8.3002 43.4238L8.52831 43.5728L8.68193 43.8009L8.73314 44.0663V46.4079C8.7378 46.5569 8.77504 46.7012 8.84953 46.8269C8.91936 46.9572 9.02177 47.0643 9.14747 47.1388L25.9392 56.8218C26.0975 56.915 26.2139 57.0639 26.2604 57.2408C26.307 57.4177 26.2837 57.6086 26.1906 57.7669L25.9392 58.0183C25.8321 58.0788 25.7157 58.1114 25.5947 58.1114Z" fill="#ED6B06"></path> <path d="M87.7609 21.8048L85.8149 21.4743V24.477C85.8336 24.7703 85.9174 25.0542 86.057 25.3149C86.1967 25.571 86.3922 25.7944 86.6296 25.9667C87.1091 26.3205 87.5002 26.7814 87.7795 27.3074C88.0588 27.8335 88.2171 28.4154 88.2404 29.0113L88.5755 25.9946L89.1481 22.6707L87.7609 21.8048Z" fill="#ED6B06"></path> <path d="M94.847 21.4976V24.491C94.8331 24.7703 94.7586 25.0403 94.6329 25.287C94.5026 25.5338 94.321 25.7479 94.1022 25.9155C93.618 26.3019 93.2223 26.7861 92.9477 27.34C92.6684 27.894 92.5194 28.4992 92.5008 29.1184L91.8909 26.0738C91.8909 24.9425 91.6488 23.0944 92.7149 22.0842C93.3806 21.7443 94.1022 21.5209 94.847 21.4324V21.4976Z" fill="#ED6B06"></path> <path d="M92.5707 37.4605V26.1155C92.5846 25.4964 92.7289 24.8865 93.0036 24.3325C93.2783 23.7832 93.6693 23.2944 94.1535 22.908C94.4049 22.7218 94.605 22.4797 94.7307 22.1911C94.8611 21.9071 94.9169 21.5952 94.8843 21.288C94.8099 20.9249 94.6469 20.5897 94.4142 20.3057C94.1814 20.0171 93.8881 19.789 93.5529 19.6353C92.7336 19.1838 91.8258 18.9231 90.8901 18.8765C88.2272 18.7043 85.8856 19.9426 85.8856 21.4742C85.9042 21.7628 85.988 22.0468 86.1277 22.3075C86.2674 22.5635 86.4629 22.787 86.6956 22.9592C87.1705 23.3177 87.5615 23.7786 87.8315 24.3046C88.1109 24.8307 88.2598 25.4126 88.2785 26.0085V37.4605C88.2831 38.3404 88.0922 39.2109 87.7198 40.0117L86.3884 42.9119L89.6657 43.8569L94.5771 42.9119L93.2503 40.0117C92.8453 39.2156 92.6126 38.345 92.5707 37.4605Z" fill="#FCC917"></path> <path d="M22.9039 57.9813V60.984C22.9412 61.3843 23.0855 61.7661 23.3183 62.0966C23.551 62.4225 23.8676 62.6832 24.2354 62.8461C25.2223 63.3629 26.3163 63.6282 27.4289 63.6189C28.3041 63.6189 29.17 63.4606 29.9893 63.1534C31.6885 62.5202 33.4994 62.213 35.315 62.2502H55.156C57.735 62.2828 60.2628 62.9625 62.516 64.2148L64.5271 65.3088V57.0735L22.9039 57.9813Z" fill="#ED6B06"></path> <path d="M59.4385 56.4218L64.4616 55.6397L64.5547 60.4021L59.4664 59.5735C58 59.35 56.515 59.2383 55.0346 59.2429H35.2588C33.4432 59.2057 31.637 59.5129 29.9331 60.1461C29.1184 60.4626 28.2525 60.6209 27.3773 60.6116C26.2647 60.6349 25.1614 60.3695 24.1838 59.8388C23.7602 59.6759 23.4017 59.3779 23.1596 58.9915C22.9222 58.6052 22.8105 58.1536 22.8477 57.702C23.0758 56.4637 24.8495 55.4768 26.991 55.3976C27.95 55.3464 28.9089 55.4907 29.8167 55.8259C31.5858 56.4637 33.4572 56.7756 35.3379 56.757H54.9415C56.4451 56.757 57.9488 56.6453 59.4385 56.4218Z" fill="#FCC917"></path> <path d="M149.133 57.981C148.257 57.9857 147.382 57.832 146.563 57.5248C144.859 56.8917 143.053 56.5844 141.237 56.6217H121.461C119.981 56.6124 118.505 56.7241 117.043 56.9568L112.034 57.725V62.6736L114.017 61.5982C116.285 60.332 118.826 59.6523 121.424 59.615H141.251C143.067 59.5824 144.873 59.8897 146.577 60.5182C147.396 60.8347 148.267 60.993 149.146 60.9837C151.632 60.9837 153.63 59.8292 153.644 58.3255V55.3182C153.62 56.8218 151.609 57.981 149.133 57.981Z" fill="#ED6B06"></path> <path d="M153.592 55.081C153.494 54.7412 153.322 54.4293 153.094 54.1639C152.866 53.8986 152.577 53.6844 152.261 53.5355C151.381 53.056 150.399 52.7953 149.398 52.7673C148.434 52.7254 147.475 52.8791 146.577 53.2189C144.807 53.8706 142.931 54.1826 141.051 54.15H121.447C119.967 54.1407 118.491 54.0243 117.029 53.8008L112.006 53.0327L111.755 55.3836L112.034 57.7392L117.039 56.9664C118.505 56.7383 119.985 56.6266 121.461 56.6359H141.251C143.066 56.5987 144.873 56.9059 146.577 57.5437C147.396 57.8463 148.266 57.9999 149.146 57.9906C151.795 57.9813 153.899 56.6499 153.592 55.081Z" fill="#FCC917"></path> <path d="M99.7073 54.6805L88.879 54.4291L110.531 66.9147L111.304 59.4289L99.7073 54.6805Z" fill="#ED6B06"></path> <path d="M112.09 57.7531V66.0116L110.53 66.9147V58.6562L112.09 57.7531Z" fill="#ED6B06"></path> <path d="M91.7559 69.6053L91.4766 75.0147L110.782 63.7628L110.531 58.6559C97.8124 59.5498 92.943 62.2871 91.7559 69.6053Z" fill="#ED6B06"></path> <path d="M91.7559 69.6054V77.8592L90.1964 78.767V70.5038L91.7559 69.6054Z" fill="#ED6B06"></path> <path d="M81.9985 70.5087V78.7672L64.4619 68.6605V60.3973L81.9985 70.5087Z" fill="#ED6B06"></path> <path d="M90.1964 70.5088V78.7673H81.9984V70.5088H90.1964Z" fill="#ED6B06"></path> <path d="M112.063 53.0047L94.5261 42.898H86.3234L84.7685 43.8011L65.989 54.7458L64.4341 55.6489L64.462 60.402L81.9986 70.5087H90.1966L91.7561 69.6009L110.531 58.6562L112.091 57.7531L112.077 55.9329L112.063 53.0047Z" fill="#FCC917"></path> <path d="M95.7366 56.6918L90.7182 59.5874C90.1875 59.8574 89.5962 59.997 89.0004 59.997C88.4045 59.997 87.8132 59.8574 87.2825 59.5874L82.157 56.6219C81.9429 56.5568 81.7613 56.4264 81.6263 56.2495C81.496 56.068 81.4261 55.8538 81.4261 55.6304C81.4261 55.4116 81.496 55.1974 81.6263 55.0159C81.7613 54.8389 81.9429 54.7086 82.157 54.6434L87.1755 51.7432C87.7108 51.4732 88.2974 51.3335 88.8933 51.3335C89.4892 51.3335 90.0804 51.4732 90.6111 51.7432L95.7366 54.7086C96.6956 55.2533 96.6956 56.1331 95.7366 56.6918Z" fill="white"></path> <path d="M90.6532 92.1327C90.5042 93.371 88.8143 94.4045 86.6589 94.5395C85.374 94.6512 84.0845 94.3905 82.944 93.7947C82.5809 93.6271 82.2689 93.3664 82.0362 93.0452C81.8034 92.7193 81.6544 92.3422 81.6125 91.9465V94.9538C81.6498 95.3495 81.7941 95.7313 82.0269 96.0571C82.2596 96.3784 82.5762 96.6344 82.944 96.802C84.0799 97.3979 85.3647 97.6539 86.6449 97.5468C88.7864 97.4118 90.4809 96.3737 90.6392 95.1401V91.9605L90.6532 92.1327Z" fill="#ED6B06"></path> <path d="M89.9589 90.4567C89.4701 90.0703 89.0697 89.5861 88.7858 89.0321C88.5065 88.4782 88.3435 87.873 88.3202 87.2492V75.9181C88.3202 75.0336 88.5065 74.1584 88.8789 73.353L90.2103 70.4528L86.216 67.7946L81.9983 70.4528L83.3297 73.353C83.7068 74.1584 83.907 75.0336 83.9256 75.9181L83.9954 87.3562C83.9815 87.9521 83.8325 88.534 83.5672 89.0601C83.2972 89.5908 82.9154 90.0517 82.4499 90.4148C82.2125 90.587 82.0169 90.8105 81.8819 91.0665C81.7423 91.3179 81.6631 91.6019 81.6492 91.8952C81.6957 92.2909 81.84 92.6679 82.0728 92.9892C82.3056 93.315 82.6175 93.5711 82.9806 93.7433C84.1258 94.3392 85.4107 94.5952 86.6955 94.4882C88.8277 94.3532 90.5175 93.315 90.6898 92.0767C90.7131 91.7695 90.6572 91.4576 90.5315 91.1782C90.4012 90.8896 90.2056 90.6429 89.9589 90.4567Z" fill="#FCC917"></path> <path d="M66.2589 104.302C65.8678 104.302 65.4907 104.199 65.1509 104.008C64.8111 103.818 64.5224 103.538 64.3222 103.198C64.1221 102.859 64.0197 102.472 64.0197 102.081V101.243L64.0755 100.978L64.2291 100.75L64.4573 100.601L64.7273 100.554L64.9926 100.605L65.2161 100.754L65.365 100.978L65.4162 101.243V102.081C65.4162 102.225 65.4535 102.37 65.528 102.495C65.5978 102.621 65.7049 102.728 65.8306 102.798C65.9563 102.877 66.1052 102.919 66.2496 102.919C66.3985 102.919 66.5428 102.877 66.6732 102.798L81.9287 94.0088L82.1847 93.9157L82.4594 93.9343L82.6968 94.0554L82.8737 94.2602L82.9668 94.5162L82.9482 94.7863L82.8271 95.0283L82.6223 95.2052L67.3622 104.008C67.027 104.199 66.6453 104.302 66.2589 104.302Z" fill="#ED6B06"></path> <path d="M106.322 104.302C105.931 104.306 105.544 104.204 105.204 104.008L89.9442 95.2051C89.7859 95.112 89.6696 94.9631 89.623 94.7862C89.5765 94.6093 89.5997 94.4184 89.6928 94.2601C89.7859 94.1018 89.9396 93.9854 90.1165 93.9389C90.298 93.8923 90.4889 93.9156 90.6518 94.0087L105.907 102.798C106.033 102.877 106.177 102.919 106.322 102.919C106.471 102.919 106.61 102.877 106.736 102.798C106.866 102.728 106.973 102.626 107.043 102.5C107.118 102.37 107.15 102.225 107.146 102.081V100.978L107.201 100.708L107.355 100.484L107.583 100.335L107.853 100.284C108.035 100.284 108.212 100.359 108.342 100.489C108.472 100.615 108.547 100.792 108.547 100.978V102.081C108.552 102.472 108.449 102.858 108.254 103.198C108.053 103.538 107.769 103.817 107.43 104.008C107.09 104.204 106.713 104.306 106.322 104.302Z" fill="#ED6B06"></path> <path d="M9.8914 71.933C9.50035 71.9284 9.11396 71.8213 8.77412 71.6258C8.43429 71.4303 8.15497 71.1509 7.95944 70.8111C7.76392 70.4713 7.66616 70.0849 7.67081 69.6985V68.6697C7.67081 68.4881 7.74064 68.3112 7.87099 68.1808C8.00134 68.0552 8.17824 67.9807 8.3598 67.9807C8.54601 67.9807 8.72291 68.0552 8.85326 68.1808C8.97896 68.3112 9.05344 68.4881 9.05344 68.6697V69.6985C9.05344 69.8428 9.09068 69.9871 9.16517 70.1175C9.235 70.2431 9.34207 70.3502 9.46777 70.4247C9.59811 70.4992 9.73777 70.5364 9.88674 70.5364C10.0357 70.5364 10.18 70.4992 10.3057 70.4247L25.5658 61.6215L25.8219 61.5331L26.0919 61.547L26.334 61.6681L26.5109 61.8775L26.5993 62.1289L26.5854 62.4036L26.4643 62.6457L26.2595 62.8179L10.9994 71.6258C10.6642 71.8213 10.2824 71.9284 9.8914 71.933Z" fill="#ED6B06"></path> <path d="M166.92 69.4845C166.534 69.4845 166.152 69.3821 165.817 69.1912L150.571 60.388L150.366 60.2111L150.24 59.9691L150.226 59.699L150.315 59.443L150.492 59.2382L150.734 59.1171L151.004 59.0985L151.265 59.1916L166.548 67.9809C166.674 68.0553 166.818 68.0972 166.967 68.0972C167.116 68.0972 167.26 68.0553 167.386 67.9809C167.512 67.911 167.619 67.804 167.693 67.6783C167.763 67.5526 167.8 67.4083 167.8 67.2639V65.7742C167.8 65.588 167.875 65.4158 168 65.2854C168.131 65.1551 168.308 65.0806 168.494 65.0806C168.675 65.0806 168.852 65.1551 168.983 65.2854C169.113 65.4158 169.183 65.588 169.183 65.7742V67.2639C169.188 67.655 169.085 68.0367 168.89 68.3766C168.699 68.7117 168.415 68.9957 168.08 69.1912C167.726 69.3914 167.325 69.4938 166.92 69.4845Z" fill="#ED6B06"></path> <path d="M76.788 74.4981L70.1309 70.6668C69.819 70.4759 69.5583 70.2199 69.3628 69.9126C69.172 69.6054 69.0509 69.2609 69.0137 68.8978V66.5189C69.0137 65.9044 69.5211 65.6949 70.1309 66.0534L76.788 69.88C77.1 70.0662 77.37 70.3269 77.5655 70.6342C77.761 70.9414 77.882 71.2906 77.9193 71.6491V73.9255C77.9193 74.5912 77.4165 74.8054 76.788 74.4981Z" fill="white"></path> <path d="M23.4205 55.4395V57.7532C23.4578 58.1117 23.5835 58.4562 23.7976 58.7541C24.0071 59.0474 24.2911 59.2801 24.6216 59.4291C25.5108 59.8807 26.4977 60.1181 27.4986 60.1181C28.4948 60.1181 29.4818 59.8807 30.3709 59.4291C30.6968 59.2848 30.9761 59.0567 31.1856 58.7681C31.3951 58.4841 31.5301 58.1443 31.572 57.7951V55.4907L23.4205 55.4395Z" fill="#C2ABD4"></path> <path d="M30.3704 57.1292C30.7196 57.0081 31.0222 56.7893 31.2363 56.4868C31.4504 56.1888 31.5668 55.8304 31.5668 55.4672C31.5668 55.0995 31.4504 54.741 31.2363 54.4431C31.0222 54.1451 30.7196 53.9217 30.3704 53.8006C29.4812 53.3491 28.4943 53.1163 27.4981 53.1163C26.4972 53.1163 25.5103 53.3491 24.6211 53.8006C24.2719 53.9217 23.9694 54.1451 23.7552 54.4431C23.5411 54.741 23.4247 55.0995 23.4247 55.4672C23.4247 55.8304 23.5411 56.1888 23.7552 56.4868C23.9694 56.7893 24.2719 57.0081 24.6211 57.1292C25.5103 57.5808 26.4972 57.8135 27.4981 57.8135C28.4943 57.8135 29.4812 57.5808 30.3704 57.1292Z" fill="#ED6B06"></path> <path d="M25.9678 51.8873V55.146C25.9817 55.2811 26.0283 55.4161 26.1074 55.5278C26.1866 55.6395 26.2936 55.728 26.4193 55.7838C26.7545 55.9514 27.1223 56.0352 27.4994 56.0352C27.8718 56.0352 28.2396 55.9514 28.5794 55.7838C28.6958 55.728 28.8029 55.6395 28.882 55.5278C28.9611 55.4207 29.0123 55.295 29.031 55.16V51.8873H25.9678Z" fill="#FCC917"></path> <path d="M15.716 52.5251H0.851562V52.567C0.851562 58.8657 7.41091 64.2845 16.81 66.6773C14.0215 65.9231 11.3167 64.8617 8.74698 63.4977L21.7446 56.0073L15.716 52.5251ZM25.967 52.5251H18.4906L23.1319 55.2066L23.4904 54.9971C23.5462 54.8016 23.6347 54.6107 23.7557 54.4431C23.9699 54.1452 24.2725 53.9217 24.6216 53.8007C25.0499 53.5866 25.5015 53.419 25.967 53.3026V52.5251ZM37.6053 38.2706C40.6638 39.0247 43.6386 40.156 46.4457 41.6503L28.6857 51.8874H29.0302V52.6089H54.3272V52.567C54.3272 46.0962 47.4094 40.5563 37.6053 38.2706ZM27.5917 37.1533C20.1665 37.1533 13.4535 38.8944 8.60732 41.7108L26.3162 51.8874H27.6708V37.1533H27.5917Z" fill="#FFF2FA"></path> <path d="M18.4903 52.5249H15.7157L21.7443 56.0071L23.1363 55.2064L18.4903 52.5249Z" fill="#ED6B06"></path> <path d="M16.8094 66.6772C16.8146 66.6772 16.825 66.6772 16.8302 66.6824C16.825 66.6772 16.8146 66.6772 16.8094 66.6772Z" fill="#ED6B06"></path> <path d="M25.9674 53.3027C25.5018 53.4191 25.0503 53.5867 24.622 53.8055C24.2728 53.9219 23.9702 54.1453 23.7561 54.4433C23.635 54.6108 23.5466 54.8017 23.4907 54.9972L25.9674 53.5727V53.3027Z" fill="#ED6B06"></path> <path d="M35.0175 62.2456C33.2997 62.2456 31.5959 62.5528 29.9898 63.1534C29.1984 63.4513 28.3651 63.6096 27.5225 63.6189V67.9809C27.5457 67.9809 27.569 67.9809 27.5923 67.9809C34.9942 67.9809 41.6979 66.2445 46.5394 63.442L44.4771 62.2502H35.3155C35.213 62.2456 35.1153 62.2456 35.0175 62.2456ZM31.391 54.6993C31.5074 54.9367 31.5679 55.1974 31.5679 55.4674C31.5679 55.4721 31.5679 55.4814 31.5679 55.4907H31.5726V56.3426C32.6806 56.6033 33.8118 56.743 34.9523 56.757L31.391 54.6993Z" fill="#FFF2FA"></path> <path d="M34.957 59.2382C33.2438 59.2382 31.5447 59.5501 29.9339 60.146C29.1658 60.4439 28.3511 60.6022 27.5225 60.6115V63.6189C28.3651 63.6096 29.1984 63.4513 29.9898 63.1533C31.5959 62.5528 33.2997 62.2456 35.0175 62.2456C35.1153 62.2456 35.213 62.2456 35.3155 62.2502H44.4771L39.2678 59.2429H35.2596C35.1618 59.2382 35.0594 59.2382 34.957 59.2382Z" fill="#ED6B06"></path> <path d="M31.5726 56.3425V57.7949C31.5307 58.1441 31.3957 58.4839 31.1862 58.7679C30.9767 59.0565 30.6974 59.28 30.3715 59.4289C29.4917 59.8759 28.514 60.1133 27.5225 60.1179V60.6114C28.3511 60.6021 29.1658 60.4438 29.9339 60.1459C31.5447 59.55 33.2438 59.2381 34.957 59.2381C35.0594 59.2381 35.1618 59.2381 35.2596 59.2427H39.2632L34.9523 56.7568C33.8118 56.7428 32.6806 56.6032 31.5726 56.3425Z" fill="#FCC740"></path> <path d="M31.5679 55.4905C31.5633 55.849 31.4469 56.1981 31.2374 56.4868C31.0233 56.7847 30.7207 57.0082 30.3715 57.1292C29.4917 57.5761 28.514 57.8135 27.5225 57.8135V60.1179C28.514 60.1133 29.4917 59.8758 30.3715 59.4289C30.6974 59.2846 30.9767 59.0565 31.1862 58.7679C31.4003 58.4793 31.5307 58.1487 31.5726 57.7949V55.4905H31.5679Z" fill="#CFADD9"></path> <path d="M29.0308 53.335V55.1599C29.0122 55.2949 28.961 55.4206 28.8818 55.5276C28.8027 55.6394 28.7003 55.7278 28.5746 55.7837C28.2487 55.9466 27.8902 56.0304 27.5225 56.0351V57.8134C28.514 57.8134 29.4917 57.576 30.3715 57.1291C30.7207 57.008 31.0233 56.7846 31.2374 56.4866C31.4469 56.198 31.5586 55.8489 31.5679 55.4904C31.5679 55.4811 31.5679 55.4718 31.5679 55.4671C31.5679 55.1971 31.5028 54.9364 31.391 54.699L29.0308 53.335Z" fill="#ED6B06"></path> <path d="M29.031 51.8873H28.6865L27.6716 52.4739V51.8873H26.3216L27.4295 52.5251H25.9678V53.5726L27.5226 52.6741V56.0352C27.8904 56.0306 28.2489 55.9468 28.5747 55.7838C28.7004 55.728 28.8029 55.6395 28.882 55.5278C28.9611 55.4207 29.0123 55.295 29.031 55.16V53.3351L27.7647 52.6042H29.031V51.8873Z" fill="#FCC740"></path> <path d="M48.4103 62.25H48.3963C47.8144 62.6643 47.1953 63.06 46.5389 63.4417L46.5528 63.4464C47.2139 63.06 47.833 62.6596 48.4103 62.25ZM54.3412 52.6088H54.3272C54.3225 54.0426 53.9734 55.4346 53.3263 56.7567H53.331C53.9967 55.402 54.3319 54.0054 54.3412 52.6088ZM8.5887 41.7014C3.88217 44.448 1.24726 47.9861 0.851562 51.5707V52.525C0.870183 48.3073 3.82631 44.4899 8.60732 41.7107L8.5887 41.7014ZM28.3598 37.1485C28.1317 37.1485 27.899 37.1485 27.6708 37.1532C31.181 37.1578 34.5328 37.5535 37.6006 38.2704C34.5886 37.5256 31.4836 37.1485 28.3598 37.1485Z" fill="#FFE8A3"></path> <path d="M51.7021 59.2426H51.6975C50.7943 60.318 49.6864 61.3282 48.3969 62.2499H48.4108C49.7283 61.3049 50.8269 60.2947 51.7021 59.2426Z" fill="#FF910A"></path> <path d="M53.335 56.7567H53.3256C52.9067 57.6179 52.3573 58.4465 51.6963 59.2426H51.7056C52.376 58.4372 52.916 57.6039 53.335 56.7567Z" fill="#FCC917"></path> <path d="M18.7935 67.129L18.7609 67.1476C21.4051 67.7109 24.1098 67.9996 26.8285 67.9996C27.0613 67.9996 27.2941 67.9996 27.5222 67.9949V67.9809C24.4683 67.9763 21.5308 67.6783 18.7935 67.129Z" fill="#FFE8A3"></path> <path d="M16.8283 66.6821C17.4707 66.8543 18.1132 67.008 18.7603 67.1476L18.7975 67.129C18.1271 66.994 17.4707 66.845 16.8283 66.6821Z" fill="#FF910A"></path> <path d="M8.60732 41.7108C3.82631 44.4901 0.870183 48.3074 0.851562 52.5252H15.716L8.45369 48.3354C8.11851 48.1445 7.83454 47.8605 7.63901 47.5207C7.43883 47.1855 7.33642 46.7991 7.33642 46.4081V44.0664L7.39228 43.8011L7.54125 43.5776L7.76471 43.4287L8.03006 43.3775L8.30007 43.424L8.52818 43.573L8.6818 43.8011L8.73301 44.0664V46.4081C8.73767 46.557 8.77491 46.7013 8.84939 46.827C8.91922 46.9574 9.02164 47.0645 9.14734 47.1389L18.4906 52.5252H25.967V51.8874H26.3208L8.60732 41.7108ZM27.6708 37.1533V51.8874H28.6857L46.4457 41.6503C43.6386 40.156 40.6638 39.0247 37.6006 38.2706C34.5328 37.5536 31.1809 37.1579 27.6708 37.1533Z" fill="#FFE39E"></path> <path d="M8.03019 43.3773L7.76484 43.4285L7.54138 43.5775L7.38776 43.8009L7.33655 44.0663V46.4079C7.33655 46.7989 7.43896 47.1853 7.63914 47.5205C7.83467 47.8604 8.11864 48.1443 8.45848 48.3352L15.7161 52.525H18.4907L9.14747 47.1388C9.02177 47.0643 8.91936 46.9572 8.84953 46.8269C8.77504 46.7012 8.7378 46.5569 8.73314 46.4079V44.0663L8.68193 43.8009L8.52831 43.5728L8.3002 43.4238L8.03019 43.3773Z" fill="#FF9C26"></path> <path d="M48.3963 62.25H44.4765L46.5388 63.4417C47.1952 63.06 47.8144 62.6643 48.3963 62.25ZM54.3272 52.6088H29.0302V53.3024C29.491 53.4188 29.9426 53.5864 30.3709 53.8006C30.72 53.9216 31.0226 54.145 31.2368 54.443C31.2973 54.5268 31.3438 54.6106 31.3904 54.699L34.9517 56.752C35.0169 56.7567 35.0867 56.7567 35.1519 56.7567C35.2124 56.7567 35.2776 56.7567 35.3381 56.7567H53.3263C53.9733 55.4346 54.3225 54.0426 54.3272 52.6088Z" fill="#FFE39E"></path> <path d="M51.6966 59.2426H39.2622L44.4762 62.2499H48.3959C49.6855 61.3282 50.7934 60.318 51.6966 59.2426Z" fill="#FF9C26"></path> <path d="M34.9512 56.7567L39.2666 59.2426H51.6963C52.3574 58.4465 52.9067 57.6179 53.3257 56.7567H35.3422C35.277 56.7567 35.2119 56.7567 35.1514 56.7567C35.0862 56.7567 35.0163 56.7567 34.9512 56.7567Z" fill="#FCC730"></path> <path d="M29.0302 53.3027V53.3353L31.3904 54.6993C31.3438 54.6108 31.2973 54.5224 31.2368 54.4433C31.0226 54.1453 30.72 53.9219 30.3709 53.8055C29.9426 53.5867 29.491 53.4191 29.0302 53.3027Z" fill="#FF9C26"></path> <path d="M25.3899 63.3207L18.7934 67.1287C21.5307 67.678 24.4682 67.976 27.5221 67.9806V63.6186C27.4988 63.6186 27.4709 63.6186 27.4476 63.6186C27.4429 63.6186 27.4336 63.6186 27.429 63.6186C27.415 63.6186 27.3964 63.6186 27.3778 63.6186C26.7027 63.6186 26.0324 63.5162 25.3899 63.3207ZM21.7448 56.0072L8.74719 63.4976C11.3169 64.8616 14.0217 65.923 16.8102 66.6771L23.8397 62.6177C23.6395 62.4734 23.4626 62.2965 23.3183 62.0963C23.0856 61.7704 22.9413 61.384 22.904 60.9837V58.3767C22.8481 58.1579 22.8295 57.9298 22.8481 57.7017C22.904 57.4084 23.0437 57.1291 23.2532 56.8777L21.7448 56.0072ZM23.4906 54.9969L23.1368 55.2064L23.4301 55.374C23.4347 55.2483 23.458 55.1226 23.4906 54.9969Z" fill="#FFE39E"></path> <path d="M23.1361 55.2021L21.7441 56.0028L23.2525 56.878C23.3037 56.8128 23.3595 56.7477 23.4247 56.6871V55.4395H23.4294C23.4294 55.4162 23.4294 55.3976 23.4294 55.3743L23.1361 55.2021Z" fill="#FF9C26"></path> <path d="M22.9039 58.3767V60.9837C22.9412 61.384 23.0855 61.7704 23.3183 62.0963C23.4626 62.2965 23.6395 62.4734 23.8396 62.6177L25.5668 61.6215L25.8228 61.533L26.0928 61.547L26.3349 61.6727L26.5118 61.8775L26.6049 62.1335L26.5863 62.4036L26.4652 62.6456L26.2604 62.8179L25.3899 63.3207C26.0323 63.5162 26.7027 63.6186 27.3777 63.6186C27.3963 63.6186 27.4103 63.6186 27.4289 63.6186C27.4336 63.6186 27.4429 63.6186 27.4475 63.6186C27.4708 63.6186 27.4987 63.6186 27.522 63.6186V60.6113C27.4941 60.6113 27.4615 60.6113 27.4336 60.6113C27.4149 60.6113 27.3963 60.6113 27.3777 60.6113C27.3358 60.6159 27.2892 60.6159 27.2473 60.6159C26.1766 60.6159 25.1245 60.3506 24.1841 59.8385C23.7605 59.6755 23.402 59.3776 23.16 58.9912C23.0436 58.8003 22.9551 58.5909 22.9039 58.3767Z" fill="#FF9C26"></path> <path d="M23.4203 56.6868C23.3598 56.7473 23.3039 56.8125 23.2527 56.8777C23.0432 57.1291 22.9035 57.4084 22.8477 57.7017C22.8291 57.9298 22.8477 58.1579 22.9035 58.3767C22.9548 58.5909 23.0432 58.8003 23.1596 58.9912C23.4017 59.3729 23.7601 59.6755 24.1838 59.8431C25.1241 60.3506 26.1762 60.6159 27.247 60.6159C27.2889 60.6159 27.3354 60.6113 27.3773 60.6113C27.3959 60.6113 27.4145 60.6113 27.4332 60.6113C27.4611 60.6113 27.4937 60.6113 27.5216 60.6113V60.1178H27.4983C26.4975 60.1178 25.5105 59.8804 24.6214 59.4288C24.2908 59.2798 24.0069 59.0471 23.7974 58.7538C23.5832 58.4605 23.4575 58.116 23.4203 57.7529V56.6868Z" fill="#FCC730"></path> <path d="M25.8221 61.533L25.566 61.6214L23.8389 62.6176L16.8094 66.6771C16.814 66.6771 16.8234 66.6771 16.828 66.6817C17.4704 66.8447 18.1268 66.9936 18.7972 67.1286L25.3891 63.3206L26.2597 62.8178L26.4645 62.6456L26.5856 62.4035L26.6042 62.1335L26.5111 61.8775L26.3342 61.668L26.0921 61.5469L25.8221 61.533Z" fill="#FF9C26"></path> <path d="M23.4205 55.4395V57.7532C23.4578 58.1117 23.5835 58.4562 23.7976 58.7541C24.0071 59.0474 24.2911 59.2801 24.6216 59.4291C25.5108 59.8807 26.4977 60.1181 27.4986 60.1181H27.5219V57.8137C27.5172 57.8137 27.5032 57.8137 27.4986 57.8137C26.4977 57.8137 25.5108 57.581 24.6216 57.1294C24.2725 57.0084 23.9699 56.7849 23.7557 56.487C23.5416 56.189 23.4252 55.8306 23.4252 55.4674V55.4395H23.4205Z" fill="#E0BA8C"></path> <path d="M25.9665 53.5724L23.4899 54.9969C23.4573 55.1226 23.434 55.2483 23.4293 55.374C23.4293 55.3972 23.4293 55.4159 23.4247 55.4391V55.4671C23.4247 55.8302 23.5411 56.1886 23.7552 56.4866C23.9694 56.7845 24.272 57.008 24.6211 57.129C25.5103 57.5806 26.4972 57.8134 27.4981 57.8134C27.5027 57.8134 27.5121 57.8134 27.5214 57.8134V56.035C27.5121 56.035 27.5027 56.035 27.4981 56.035C27.121 56.035 26.7532 55.9512 26.4181 55.7836C26.2924 55.7278 26.1853 55.6393 26.1061 55.5276C26.027 55.4159 25.9805 55.2809 25.9665 55.1459V53.5724Z" fill="#FF9C26"></path> <path d="M27.5226 52.6741L25.9678 53.5726V55.146C25.9817 55.2857 26.0283 55.4161 26.1074 55.5278C26.1866 55.6395 26.2936 55.728 26.4193 55.7838C26.7545 55.9514 27.1223 56.0352 27.4994 56.0352C27.5087 56.0352 27.518 56.0352 27.5226 56.0352V52.6741ZM29.031 52.6089H27.7647L29.031 53.3351V52.6089ZM26.3216 51.8873H25.9678V52.5251H27.4295L26.3216 51.8873ZM28.6865 51.8873H27.6716V52.4739L28.6865 51.8873Z" fill="#FCC730"></path> <path d="M25.9678 51.0123V53.0653H29.031V51.0123H25.9678Z" fill="url(#paint0_linear_143_4332)"></path> <path d="M28.5743 51.6358C28.7047 51.5893 28.8164 51.5055 28.8956 51.3937C28.97 51.282 29.0166 51.147 29.0166 51.0074C29.0166 50.8724 28.97 50.742 28.8956 50.6303C28.8164 50.5139 28.7047 50.4301 28.5743 50.3835C28.2392 50.2206 27.8714 50.1368 27.499 50.1368C27.1219 50.1368 26.7541 50.2206 26.4189 50.3835C26.2886 50.4301 26.1815 50.5139 26.1024 50.6303C26.0232 50.742 25.9813 50.8724 25.9813 51.0074C25.9813 51.147 26.0232 51.282 26.1024 51.3937C26.1815 51.5055 26.2886 51.5893 26.4189 51.6358C26.7541 51.8034 27.1219 51.8965 27.499 51.8965C27.8714 51.8965 28.2392 51.8034 28.5743 51.6358Z" fill="#FCC917"></path> <path d="M86.3229 18.9185V21.2182C86.3508 21.5813 86.4718 21.9258 86.6813 22.2238C86.8908 22.517 87.1748 22.7498 87.51 22.8941C88.3991 23.3457 89.3861 23.5831 90.387 23.5831C91.3832 23.5831 92.3701 23.3457 93.2593 22.8941C93.5852 22.7498 93.8691 22.5264 94.0786 22.2377C94.2881 21.9491 94.4185 21.6139 94.4604 21.2601V18.9604L86.3229 18.9185Z" fill="#CFB8DB"></path> <path d="M93.3161 20.5943C93.656 20.4733 93.9492 20.2498 94.1587 19.9565C94.3636 19.6632 94.48 19.3141 94.48 18.951C94.48 18.5925 94.3636 18.2387 94.1587 17.9454C93.9492 17.6521 93.656 17.4287 93.3161 17.3077C92.4223 16.8561 91.4354 16.6233 90.4391 16.6233C89.4382 16.6233 88.456 16.8561 87.5622 17.3077C87.213 17.424 86.9058 17.6428 86.6916 17.9408C86.4775 18.2387 86.3611 18.5972 86.3611 18.9649C86.3611 19.3327 86.4775 19.6912 86.6916 19.9891C86.9058 20.2871 87.213 20.5059 87.5622 20.6222C88.456 21.0691 89.4429 21.3019 90.4438 21.2973C91.44 21.2926 92.427 21.0505 93.3161 20.5943Z" fill="#ED6B06"></path> <path d="M88.8556 15.3152V18.6391C88.8649 18.7788 88.9115 18.9092 88.9906 19.0209C89.0697 19.1326 89.1815 19.2211 89.3072 19.2769C89.6423 19.4492 90.0101 19.5376 90.3872 19.5376C90.7596 19.5376 91.132 19.4492 91.4626 19.2769C91.5976 19.2257 91.7186 19.1419 91.8117 19.0302C91.9002 18.9185 91.9607 18.7835 91.984 18.6391V15.3804L88.8556 15.3152Z" fill="#FCC917"></path> <path d="M98.3385 1.29819C102.161 2.01511 105.871 3.30463 109.334 5.13883L91.5883 15.3712L91.984 15.3805V16.1114L104.507 16.0974L110.624 12.5734C110.75 12.5035 110.852 12.3965 110.927 12.2708C110.996 12.1451 111.038 12.0008 111.038 11.8565V8.5698C111.038 8.38824 111.108 8.21134 111.238 8.08099C111.369 7.95064 111.546 7.88081 111.727 7.88081L111.997 7.92736L112.23 8.07633L112.379 8.30444L112.435 8.5698V11.8565C112.435 12.2475 112.332 12.6339 112.137 12.9691C111.937 13.3089 111.657 13.5929 111.318 13.7838L107.309 16.0974L117.225 16.0835C117.244 12.1265 114.627 8.16013 109.386 5.13883C106.183 3.29532 102.379 2.01511 98.3385 1.29819ZM90.485 0.623169C83.6464 0.623169 76.8124 2.12684 71.5845 5.13883C71.5751 5.14348 71.5658 5.15279 71.5565 5.15745L89.1769 15.32L90.5595 15.3526V0.646446C90.7783 0.641789 90.9971 0.637135 91.2159 0.637135C91.4859 0.637135 91.7559 0.641789 92.0259 0.646446C91.5139 0.632479 90.9971 0.623169 90.485 0.623169Z" fill="#FFF5D1"></path> <path d="M111.727 7.88058C111.545 7.88058 111.368 7.95507 111.238 8.08076C111.108 8.21111 111.038 8.38801 111.038 8.56957V11.8562C111.038 12.0005 110.996 12.1449 110.926 12.2706C110.852 12.3962 110.749 12.5033 110.624 12.5731L104.506 16.0972H107.309L111.317 13.7835C111.657 13.588 111.936 13.3087 112.137 12.9735C112.332 12.6337 112.434 12.2473 112.434 11.8562V8.56957L112.379 8.30422L112.23 8.07611L111.997 7.92714L111.727 7.88058Z" fill="#ED6B06"></path> <path d="M88.8565 15.9808H76.3197L83.4843 20.11L86.459 18.3969C86.5149 18.2339 86.5894 18.085 86.6918 17.9407C86.9106 17.6474 87.2132 17.4239 87.5623 17.3075C87.9767 17.098 88.4096 16.9351 88.8565 16.8234V15.9808ZM63.8621 14.6075C63.1498 19.016 65.7242 23.5736 71.5853 26.9533C74.965 28.8993 79.0152 30.2167 83.3074 30.9057C79.2479 30.2214 75.3049 28.89 71.6365 26.9533L82.1016 20.9107L73.5545 15.9808H63.755C63.755 15.5199 63.7923 15.0637 63.8621 14.6075Z" fill="#FFF5D1"></path> <path d="M76.319 15.9808H73.5537L82.1009 20.9108L83.4835 20.1101L76.319 15.9808Z" fill="#ED6B06"></path> <path d="M88.8554 16.8237C88.4085 16.9354 87.9755 17.0983 87.5612 17.3078C87.212 17.4242 86.9095 17.6477 86.6907 17.9409C86.5882 18.0806 86.5137 18.2342 86.4579 18.3972L88.8554 17.0145V16.8237Z" fill="#ED6B06"></path> <path d="M87.9106 31.3991C88.0317 31.4038 88.1574 31.4131 88.2831 31.4177V31.4131C88.1574 31.4084 88.0363 31.4038 87.9106 31.3991ZM98.967 20.906L94.8471 23.2803V24.4906C94.8331 24.77 94.7586 25.04 94.6329 25.2867C94.5026 25.5288 94.321 25.7429 94.1022 25.9152C93.6181 26.3016 93.2224 26.7857 92.9477 27.3397C92.7661 27.6981 92.6404 28.0799 92.566 28.4756V31.4224C98.697 31.1477 104.693 29.658 109.386 26.9533C109.4 26.944 109.409 26.9347 109.423 26.93L98.967 20.906ZM94.3164 18.2246C94.4234 18.4527 94.4746 18.6994 94.4746 18.9508C94.4746 19.0299 94.47 19.1137 94.4607 19.1929V20.3614C94.6655 20.636 94.8145 20.9479 94.8843 21.2878C94.8983 21.4042 94.8936 21.5252 94.8843 21.6462L97.5658 20.1007L94.3164 18.2246Z" fill="#FFF5D1"></path> <path d="M97.5666 20.096L94.8851 21.6463C94.8758 21.7161 94.8619 21.7859 94.8479 21.8557V23.2803L98.9679 20.9061L97.5666 20.096Z" fill="#ED6B06"></path> <path d="M94.8467 21.8557C94.8187 21.9721 94.7815 22.0838 94.7349 22.1909C94.6046 22.4795 94.4044 22.7216 94.153 22.9078C93.6689 23.2942 93.2778 23.783 93.0032 24.3323C92.7285 24.8863 92.5795 25.4962 92.5656 26.1153V28.4756C92.64 28.0845 92.7657 27.6981 92.9473 27.3397C93.222 26.7857 93.6177 26.3015 94.1018 25.9151C94.3206 25.7476 94.5022 25.5288 94.6325 25.2867C94.7582 25.0399 94.8327 24.7699 94.8467 24.4906V21.8557Z" fill="#ED6B06"></path> <path d="M94.4608 20.3613V21.2598C94.4189 21.6136 94.2886 21.9488 94.0791 22.2374C93.8696 22.526 93.5856 22.7495 93.2597 22.8938C92.3752 23.3454 91.4023 23.5782 90.4107 23.5828V31.4363C90.1826 31.4363 89.9498 31.441 89.7217 31.441C89.2422 31.441 88.758 31.4317 88.2832 31.413V31.4177C89.0141 31.4503 89.7543 31.4689 90.4898 31.4689C91.1835 31.4689 91.8771 31.4549 92.5708 31.4224V26.1153C92.5801 25.4961 92.729 24.891 93.0037 24.337C93.2784 23.783 93.6694 23.2942 94.1536 22.9078C94.4049 22.7216 94.6051 22.4748 94.7355 22.1909C94.782 22.0838 94.8193 21.9721 94.8472 21.8557C94.8612 21.7859 94.8751 21.716 94.8844 21.6462C94.8938 21.5252 94.8984 21.4041 94.8844 21.2877C94.8146 20.9526 94.6656 20.636 94.4608 20.3613Z" fill="#FCC917"></path> <path d="M94.4604 19.193C94.4232 19.4677 94.3161 19.7284 94.1578 19.9565C93.9483 20.2498 93.655 20.4732 93.3152 20.5942C92.426 21.0505 91.4391 21.2925 90.4429 21.2972H90.4103V23.583C91.4019 23.5783 92.3748 23.3455 93.2593 22.894C93.5852 22.7497 93.8692 22.5262 94.0787 22.2376C94.2882 21.9489 94.4185 21.6138 94.4604 21.26V19.193Z" fill="#D6BAB5"></path> <path d="M91.9838 16.8795V18.6392C91.9605 18.7835 91.9 18.9185 91.8115 19.0302C91.7184 19.142 91.602 19.2258 91.4624 19.277C91.1365 19.4446 90.778 19.533 90.4103 19.5377V21.2974H90.4429C91.4391 21.2927 92.426 21.0507 93.3152 20.5944C93.655 20.4734 93.9483 20.2499 94.1578 19.9567C94.3161 19.7285 94.4232 19.4678 94.4604 19.1932C94.4697 19.114 94.4744 19.0302 94.4744 18.9511C94.4744 18.6997 94.4232 18.453 94.3161 18.2249L91.9838 16.8795Z" fill="#ED6B06"></path> <path d="M89.1768 15.3196L90.3174 15.9807H88.8556V17.0141L90.4105 16.111V19.5327C90.7782 19.5327 91.1367 19.4442 91.4626 19.2766C91.5976 19.2254 91.7186 19.1416 91.8117 19.0299C91.9002 18.9182 91.9607 18.7832 91.984 18.6389V16.8791L90.6525 16.111H91.984V15.3801L91.5883 15.3708L90.5594 15.9667V15.3522L89.1768 15.3196Z" fill="#FCC917"></path> <path d="M83.3068 30.9058C84.8291 31.1619 86.3654 31.3248 87.9109 31.3993C86.3607 31.3108 84.8198 31.1479 83.3068 30.9058ZM117.281 16.0833H117.225C117.207 20.0077 114.609 23.9322 109.423 26.9302L109.437 26.9395C114.618 23.9601 117.202 19.9705 117.281 16.0833ZM71.5289 5.13865C67.0086 7.79684 64.4016 11.1161 63.8616 14.6076C64.4156 11.158 66.9853 7.79684 71.5568 5.15727L71.5289 5.13865ZM92.0262 0.646271C94.1584 0.720756 96.2765 0.934901 98.3388 1.29802C96.2626 0.911625 94.1491 0.692823 92.0262 0.646271Z" fill="#FFE8A3"></path> <path d="M71.5562 5.1574C66.9847 7.79696 64.4196 11.1581 63.861 14.6077C63.7911 15.0639 63.7539 15.5201 63.7539 15.981H73.5534L69.0517 13.388C68.7165 13.1925 68.4418 12.9085 68.2463 12.5733C68.0554 12.2381 67.9483 11.8564 67.9483 11.47V8.56975C67.9483 8.38819 68.0228 8.21129 68.1532 8.08094C68.2835 7.95059 68.4558 7.88076 68.642 7.88076C68.8235 7.88076 69.0005 7.95059 69.1308 8.08094C69.2611 8.21129 69.3356 8.38819 69.3356 8.56975V11.47C69.3356 11.619 69.3729 11.7586 69.4474 11.8843C69.5172 12.01 69.6243 12.1171 69.7453 12.1869L76.3186 15.981H88.8554V15.3153L89.1766 15.32L71.5562 5.1574ZM91.2156 0.637085C90.9968 0.637085 90.778 0.641739 90.5592 0.646396V15.3525L91.5881 15.3712L109.329 5.13878C105.871 3.30458 102.16 2.01506 98.3383 1.29814C96.276 0.935026 94.1578 0.716224 92.0257 0.646396C91.7556 0.641739 91.4856 0.637085 91.2156 0.637085Z" fill="#FCE387"></path> <path d="M68.6416 7.88065C68.4554 7.88065 68.2832 7.95513 68.1528 8.08082C68.0225 8.21117 67.948 8.38807 67.948 8.56963V11.4699C67.948 11.8563 68.0551 12.238 68.2459 12.5732C68.4415 12.9084 68.7208 13.1924 69.0513 13.3832L73.553 15.9809H76.3183L69.745 12.1915C69.6239 12.117 69.5168 12.0099 69.4424 11.8842C69.3725 11.7585 69.3353 11.6142 69.3353 11.4699V8.56963C69.3353 8.38807 69.2608 8.21117 69.1304 8.08082C69.0001 7.95513 68.8232 7.88065 68.6416 7.88065Z" fill="#FC9E0D"></path> <path d="M104.507 16.0974L91.9845 16.1114V16.8144C92.4407 16.9261 92.8876 17.0937 93.3159 17.3078C93.6558 17.4289 93.949 17.6523 94.1585 17.9456C94.219 18.034 94.2749 18.1271 94.3168 18.2249L97.5662 20.0964L104.507 16.0974ZM117.226 16.0835L107.31 16.0974L98.9675 20.9064L109.423 26.9304C114.609 23.9323 117.207 20.0079 117.226 16.0835Z" fill="#FCE387"></path> <path d="M107.31 16.0974H104.507L97.566 20.101L98.9673 20.9064L107.31 16.0974Z" fill="#FC9E0D"></path> <path d="M91.9845 16.8141V16.8792L94.3168 18.2246C94.2749 18.1269 94.2191 18.0337 94.1585 17.9453C93.949 17.652 93.6558 17.4286 93.3159 17.3075C92.8876 17.0934 92.4407 16.9258 91.9845 16.8141Z" fill="#FC9E0D"></path> <path d="M82.1004 20.9109L71.6353 26.9535C75.3036 28.8901 79.242 30.2215 83.3061 30.9059C84.8191 31.1479 86.36 31.3109 87.9102 31.3993C88.0313 31.404 88.157 31.4086 88.278 31.4133V28.6573L88.2408 29.0112C88.2175 28.4153 88.0592 27.8334 87.7799 27.3073C87.5006 26.7813 87.1095 26.3204 86.63 25.9666C86.3926 25.7943 86.1971 25.5709 86.0574 25.3148C85.9178 25.0541 85.834 24.7702 85.8154 24.4769V23.0523L82.1004 20.9109ZM86.4578 18.397L83.483 20.1102L85.8573 21.4789L85.8852 21.4835C85.8852 21.4789 85.8852 21.4742 85.8852 21.4742C85.8852 21.0738 86.0435 20.6968 86.3228 20.3569V18.9184H86.36C86.3647 18.7415 86.3973 18.5646 86.4578 18.397Z" fill="#FCE387"></path> <path d="M83.4839 20.11L82.1013 20.9107L85.8163 23.0521V21.474L85.8582 21.4786L83.4839 20.11Z" fill="#FC9E0D"></path> <path d="M85.8149 21.4695V24.4768C85.8336 24.7701 85.9174 25.0541 86.057 25.3148C86.1967 25.5708 86.3922 25.7943 86.6296 25.9665C87.1091 26.3203 87.5002 26.7812 87.7795 27.3073C88.0588 27.8333 88.2171 28.4152 88.2404 29.0111L88.2776 28.6573V26.0084C88.259 25.4125 88.1054 24.8306 87.8307 24.3046C87.5607 23.7785 87.1696 23.3176 86.6948 22.9592C86.462 22.7869 86.2665 22.5635 86.1268 22.3074C85.9872 22.0514 85.908 21.7721 85.8848 21.4834L85.8568 21.4788L85.8149 21.4695Z" fill="#FC9E0D"></path> <path d="M86.3232 20.3571C86.0439 20.6969 85.8856 21.074 85.8856 21.4697C85.8856 21.4743 85.8856 21.479 85.8856 21.4836C85.9042 21.7723 85.988 22.0516 86.1277 22.3076C86.2674 22.5637 86.4629 22.7871 86.6956 22.9594C87.1705 23.3178 87.5615 23.7787 87.8315 24.3048C88.1109 24.8355 88.2598 25.4127 88.2785 26.0086V31.4134C88.7626 31.4321 89.2421 31.4414 89.7216 31.4414C89.9497 31.4414 90.1825 31.4367 90.4106 31.4367V23.5832H90.3873C89.3864 23.5832 88.3995 23.3458 87.5103 22.8942C87.1751 22.7499 86.8912 22.5171 86.6817 22.2238C86.4722 21.9259 86.3512 21.5814 86.3232 21.2183V20.3571Z" fill="#FCC917"></path> <path d="M86.3229 18.9185V21.2182C86.3508 21.5813 86.4718 21.9258 86.6813 22.2238C86.8908 22.517 87.1748 22.7498 87.51 22.8941C88.3991 23.3457 89.3861 23.5831 90.387 23.5831H90.4102V21.2974C89.4187 21.2974 88.4457 21.0646 87.5612 20.6223C87.212 20.506 86.9094 20.2872 86.6906 19.9892C86.4765 19.6913 86.3601 19.3328 86.3601 18.965C86.3601 18.9511 86.3601 18.9325 86.3601 18.9185H86.3229Z" fill="#E5C275"></path> <path d="M88.8563 17.0144L86.4588 18.397C86.3983 18.5646 86.3657 18.7415 86.3611 18.9184C86.3611 18.9324 86.3611 18.951 86.3611 18.965C86.3611 19.3328 86.4775 19.6912 86.6916 19.9892C86.9104 20.2871 87.213 20.5059 87.5622 20.6223C88.4467 21.0645 89.4196 21.2973 90.4112 21.2973V19.5376C90.4019 19.5376 90.3926 19.5376 90.3879 19.5376C90.0109 19.5376 89.6431 19.4491 89.3079 19.2769C89.1822 19.221 89.0705 19.1326 88.9913 19.0208C88.9122 18.9091 88.8656 18.7788 88.8563 18.6391V17.0144Z" fill="#FC9E0D"></path> <path d="M90.4105 16.1113L88.8556 17.0144V18.6391C88.8649 18.7788 88.9115 18.9092 88.9906 19.0209C89.0697 19.1326 89.1815 19.2211 89.3072 19.2769C89.6423 19.4492 90.0101 19.5376 90.3872 19.5376C90.3918 19.5376 90.4012 19.5376 90.4105 19.5376V16.1113ZM91.984 16.1113H90.6525L91.984 16.8794V16.1113ZM90.5594 15.3478V15.967L91.5883 15.3711L90.5594 15.3478ZM88.8556 15.3152V15.981H90.3174L89.1768 15.3199L88.8556 15.3152Z" fill="#FCC917"></path> <path d="M88.8556 14.4773V15.6458C88.8649 15.7854 88.9115 15.9158 88.9953 16.0275C89.0744 16.1392 89.1815 16.2277 89.3072 16.2836C89.6423 16.4558 90.0101 16.5443 90.3872 16.5443C90.7596 16.5443 91.132 16.4558 91.4626 16.2836C91.5836 16.2277 91.6907 16.1392 91.7698 16.0322C91.849 15.9204 91.9002 15.7947 91.9188 15.6597V14.4913L88.8556 14.4773Z" fill="#ED6B06"></path> <path d="M91.4624 15.115C91.5927 15.0685 91.7045 14.9847 91.779 14.873C91.8581 14.7612 91.9 14.6262 91.9 14.4912C91.9 14.3516 91.8581 14.2212 91.779 14.1095C91.7045 13.9978 91.5927 13.9093 91.4624 13.8628C91.1272 13.6952 90.7594 13.6067 90.387 13.6067C90.0099 13.6067 89.6422 13.6952 89.307 13.8628C89.1766 13.9093 89.0649 13.9978 88.9904 14.1095C88.9113 14.2212 88.8694 14.3516 88.8694 14.4912C88.8694 14.6262 88.9113 14.7612 88.9904 14.873C89.0649 14.9847 89.1766 15.0685 89.307 15.115C89.6422 15.2873 90.0099 15.3757 90.387 15.3757C90.7594 15.3757 91.1272 15.2873 91.4624 15.115Z" fill="#FCC917"></path> <path d="M145.139 53.0045V55.3043C145.162 55.672 145.288 56.0212 145.502 56.3191C145.712 56.6171 146 56.8498 146.335 56.9942C147.229 57.4457 148.211 57.6831 149.212 57.6831C150.213 57.6831 151.195 57.4457 152.089 56.9942C152.415 56.8498 152.694 56.6264 152.904 56.3378C153.109 56.0491 153.239 55.7139 153.272 55.3601V53.0464L145.139 53.0045Z" fill="#ED6B06"></path> <path d="M149.212 55.3603C151.461 55.3603 153.286 54.3128 153.286 53.0187C153.286 51.7245 151.461 50.677 149.212 50.677C146.964 50.677 145.139 51.7245 145.139 53.0187C145.139 54.3128 146.964 55.3603 149.212 55.3603Z" fill="#ED6B06"></path> <path d="M147.68 49.4154V52.6741C147.689 52.8091 147.736 52.9348 147.811 53.0465C147.89 53.1582 147.997 53.2467 148.118 53.2979C148.458 53.4702 148.83 53.5586 149.202 53.5586C149.584 53.5586 149.952 53.4702 150.292 53.2979C150.408 53.2467 150.515 53.1582 150.594 53.0512C150.669 52.9441 150.715 52.8184 150.729 52.6881V49.4293L147.68 49.4154Z" fill="#FCC917"></path> <path d="M132.965 59.615H128.226C128.915 60.1225 129.66 60.6066 130.451 61.0628L132.965 59.615ZM149.305 34.7184C134.539 34.7184 122.57 41.6222 122.57 50.1321C122.57 51.5194 122.886 52.8695 123.487 54.1497H141.051C141.144 54.1497 141.238 54.1497 141.335 54.1497C141.731 54.1497 142.131 54.1357 142.527 54.1031L145.218 52.5529C145.488 51.7801 146.428 51.1423 147.68 50.8491V50.0949H122.607C122.607 46.1844 125.27 42.26 130.4 39.2666L147.96 49.4152L149.37 49.4199V34.7836C149.598 34.7789 149.822 34.7789 150.05 34.7789C156.358 34.7789 162.577 36.3152 168.159 39.2666L150.553 49.4245H150.73V50.2392H158.09L167.014 45.0904C167.14 45.0159 167.242 44.9135 167.317 44.7878C167.391 44.6621 167.428 44.5178 167.428 44.3735V41.9946L167.48 41.7293L167.629 41.5058L167.852 41.3569L168.117 41.301L168.387 41.3569L168.611 41.5058L168.76 41.7293L168.811 41.9946V44.3735C168.811 44.7599 168.709 45.1416 168.513 45.4815C168.322 45.812 168.043 46.0913 167.708 46.2915L160.86 50.2392H176.041V50.1321C176.041 41.6222 164.072 34.7184 149.305 34.7184Z" fill="#FFF2FA"></path> <path d="M168.116 41.3011L167.855 41.357L167.627 41.5059L167.478 41.7294L167.427 41.9947V44.3736C167.427 44.5179 167.39 44.6622 167.315 44.7879C167.241 44.9136 167.138 45.016 167.013 45.0905L158.088 50.2393H160.858L167.706 46.2916C168.041 46.0914 168.321 45.8121 168.512 45.4769C168.707 45.1417 168.81 44.76 168.81 44.3736V41.9947L168.758 41.7294L168.609 41.5059L168.386 41.357L168.116 41.3011Z" fill="#ED6B06"></path> <path d="M138.133 56.6357H125.056C125.917 57.7017 126.983 58.698 128.226 59.6151H132.965L138.133 56.6357Z" fill="#ED6B06"></path> <path d="M142.527 54.1031C142.131 54.1357 141.735 54.1544 141.335 54.1544C141.242 54.1544 141.144 54.1497 141.051 54.1497H123.486C123.887 55.0109 124.413 55.8396 125.055 56.6356H138.132L142.527 54.1031Z" fill="#FCC740"></path> <path d="M147.68 50.849C146.428 51.1423 145.487 51.7801 145.217 52.5575L147.68 51.1376V50.849Z" fill="#ED6B06"></path> <path d="M151.139 60.7138C150.567 60.8814 149.92 60.9745 149.24 60.9838V65.5461H149.305C152.368 65.5461 155.306 65.2481 158.048 64.7034L151.139 60.7138ZM155.166 53.5214L153.369 54.5548C153.467 54.7224 153.537 54.8947 153.593 55.0809C153.644 55.3462 153.625 55.6116 153.546 55.8583C153.607 55.6861 153.644 55.5045 153.644 55.3183V58.3257C153.639 58.9681 153.276 59.5407 152.662 59.9969L160.059 64.2472C163.113 63.4744 165.864 62.3804 168.192 61.0444L155.166 53.5214ZM153.108 52.3343C153.225 52.5484 153.285 52.7765 153.285 53.0093L153.779 52.7207L153.108 52.3343Z" fill="#FFF2FA"></path> <path d="M153.778 52.7204L153.284 53.0091V53.0184C153.284 53.0789 153.28 53.1441 153.27 53.2046V54.401C153.308 54.4522 153.34 54.5034 153.368 54.5546L155.165 53.5211L153.778 52.7204Z" fill="#ED6B06"></path> <path d="M153.644 55.3182C153.644 55.5044 153.607 55.6859 153.546 55.8582C153.169 57.05 151.391 57.9577 149.24 57.9903V60.9837C149.92 60.9744 150.567 60.8813 151.139 60.7137L150.571 60.3878L150.362 60.2109L150.241 59.9688L150.227 59.6988L150.315 59.4428L150.492 59.238L150.734 59.1123L151.004 59.0983L151.26 59.1914L152.662 59.9968C153.276 59.5452 153.639 58.9633 153.644 58.3255V55.3182Z" fill="#ED6B06"></path> <path d="M153.276 54.4012V55.3602C153.239 55.714 153.108 56.0492 152.904 56.3379C152.694 56.6218 152.415 56.8499 152.089 56.9943C151.204 57.4412 150.227 57.6786 149.24 57.6832V57.9905C151.391 57.9533 153.169 57.0501 153.546 55.8584C153.625 55.6116 153.644 55.3463 153.593 55.0809C153.537 54.8947 153.462 54.7225 153.369 54.5549C153.341 54.5037 153.309 54.4525 153.276 54.4012Z" fill="#FCC740"></path> <path d="M151.004 59.0985L150.739 59.1125L150.492 59.2382L150.315 59.443L150.226 59.699L150.245 59.9691L150.361 60.2111L150.571 60.388L151.139 60.7139L158.047 64.7035C158.732 64.5685 159.402 64.4149 160.058 64.2473L152.661 59.997L151.26 59.1916L151.004 59.0985Z" fill="#ED6B06"></path> <path d="M153.276 53.205C153.108 54.406 151.367 55.3511 149.24 55.3604V57.6834C150.227 57.6787 151.204 57.4413 152.089 56.9944C152.415 56.8501 152.694 56.6266 152.904 56.338C153.108 56.0494 153.239 55.7095 153.276 55.3604V53.205Z" fill="#ED6B06"></path> <path d="M150.73 50.9608V52.6879C150.716 52.8183 150.669 52.9439 150.595 53.051C150.515 53.1581 150.413 53.2465 150.292 53.2978C149.966 53.4607 149.603 53.5538 149.24 53.5585V55.3601C151.367 55.3507 153.108 54.4057 153.276 53.2046C153.281 53.1441 153.285 53.079 153.285 53.0184V53.0091C153.285 52.7717 153.225 52.5482 153.108 52.3341L150.73 50.9608Z" fill="#ED6B06"></path> <path d="M130.512 61.0957C132.918 62.469 135.772 63.577 138.938 64.3451C136.023 63.5956 133.193 62.5109 130.512 61.0957Z" fill="#FFF2FA"></path> <path d="M147.959 49.4154L149.133 50.0904H147.68V51.1378L149.24 50.2394V53.5586C149.603 53.554 149.966 53.4608 150.292 53.2979C150.413 53.2467 150.515 53.1582 150.594 53.0512C150.669 52.9441 150.715 52.8184 150.729 52.6881V50.9609L149.477 50.2394H150.729V49.4293L150.548 49.4247L149.37 50.1044V49.42L147.959 49.4154Z" fill="#FCC740"></path> <path d="M138.937 64.345C142.08 65.155 145.325 65.5647 148.593 65.5647C148.807 65.5647 149.021 65.5647 149.24 65.56V65.546C145.585 65.5414 142.103 65.1131 138.937 64.345ZM130.451 61.063C130.469 61.0769 130.493 61.0862 130.511 61.0955C130.493 61.0862 130.474 61.0769 130.451 61.063ZM176.04 50.2393C175.994 54.4571 173 58.2744 168.191 61.0443L168.252 61.0769C173.433 58.0696 176.031 54.1638 176.04 50.2393Z" fill="#FFE8A3"></path> <path d="M158.09 50.2393H150.729V50.8445C151.865 51.1052 152.75 51.6545 153.113 52.3342L153.779 52.7252L158.09 50.2393ZM176.04 50.2393H160.859L155.166 53.5213L168.192 61.0443C173 58.2744 175.994 54.457 176.04 50.2393ZM130.395 39.2667C125.27 42.2601 122.607 46.1845 122.607 50.0903H147.68V49.4153H147.96L130.395 39.2667ZM150.045 34.779C149.822 34.779 149.598 34.779 149.37 34.7836V49.42L150.548 49.4246L168.159 39.2667C162.577 36.3152 156.358 34.779 150.045 34.779Z" fill="#FFE39E"></path> <path d="M160.859 50.2393H158.089L153.778 52.7253L155.166 53.5213L160.859 50.2393Z" fill="#FF9C26"></path> <path d="M150.729 50.8447V50.9611L153.108 52.3344C152.749 51.6548 151.865 51.1054 150.729 50.8447Z" fill="#FF9C26"></path> <path d="M141.498 59.6152C141.414 59.6152 141.33 59.6152 141.251 59.6152H132.965L130.451 61.063C130.474 61.0723 130.493 61.0862 130.511 61.0956C133.193 62.5108 136.023 63.5955 138.937 64.345C142.103 65.1131 145.585 65.5414 149.24 65.546V60.9838C149.207 60.9838 149.174 60.9838 149.147 60.9838C149.128 60.9838 149.109 60.9838 149.091 60.9838C148.229 60.9838 147.378 60.8256 146.577 60.5183C144.947 59.9178 143.23 59.6152 141.498 59.6152ZM145.217 52.5577L142.527 54.1033C143.407 54.0334 144.282 53.8891 145.138 53.6657V53.0046C145.138 52.851 145.166 52.702 145.217 52.5577Z" fill="#FFE39E"></path> <path d="M141.554 56.6309C141.451 56.6309 141.349 56.6356 141.251 56.6356H138.132L132.965 59.615H141.251C141.33 59.615 141.414 59.6103 141.498 59.6103C143.23 59.6103 144.947 59.9176 146.577 60.5181C147.377 60.8254 148.229 60.9836 149.091 60.9836C149.109 60.9836 149.128 60.9836 149.146 60.9836C149.174 60.9836 149.207 60.9836 149.24 60.9836V57.9903C149.207 57.9903 149.174 57.9903 149.146 57.9949C149.128 57.9949 149.114 57.9949 149.095 57.9949C148.234 57.9949 147.382 57.8413 146.577 57.5434C144.966 56.9382 143.267 56.6309 141.554 56.6309Z" fill="#FF9C26"></path> <path d="M145.138 53.6658C144.282 53.8893 143.411 54.0336 142.527 54.1034L138.132 56.6359H141.251C141.349 56.6359 141.451 56.6313 141.554 56.6313C143.267 56.6313 144.966 56.9385 146.577 57.5391C147.382 57.837 148.234 57.9906 149.095 57.9906C149.114 57.9906 149.128 57.9906 149.146 57.9906C149.174 57.9906 149.207 57.9906 149.24 57.9906V57.6834H149.212C148.211 57.6834 147.228 57.4459 146.335 56.9944C145.999 56.8501 145.711 56.6173 145.501 56.3194C145.287 56.0214 145.161 55.6723 145.138 55.3045V53.6658Z" fill="#FCC730"></path> <path d="M145.139 53.0045V55.3043C145.162 55.672 145.288 56.0212 145.502 56.3191C145.712 56.6171 146 56.8498 146.335 56.9942C147.229 57.4457 148.211 57.6831 149.212 57.6831H149.24V55.3601C149.231 55.3601 149.222 55.3601 149.212 55.3601C146.964 55.3601 145.139 54.3127 145.139 53.0185V53.0045Z" fill="#FF9C26"></path> <path d="M147.681 51.1379L145.218 52.5578C145.167 52.7021 145.139 52.8511 145.139 53.0047V53.0187C145.139 54.3128 146.964 55.3603 149.212 55.3603C149.222 55.3603 149.231 55.3603 149.24 55.3603V53.5587C149.226 53.5587 149.217 53.5587 149.203 53.5587C148.831 53.5587 148.458 53.4702 148.118 53.298C147.997 53.2468 147.89 53.1583 147.811 53.0466C147.737 52.9349 147.69 52.8092 147.681 52.6742V51.1379Z" fill="#FF9C26"></path> <path d="M149.24 50.2394L147.68 51.1378V52.6741C147.689 52.8044 147.736 52.9348 147.811 53.0465C147.89 53.1582 147.997 53.242 148.122 53.2979C148.458 53.4702 148.83 53.5586 149.207 53.5586C149.216 53.5586 149.226 53.5586 149.24 53.5586V50.2394ZM150.729 50.2394H149.477L150.729 50.9609V50.2394ZM149.37 49.42V50.1044L150.553 49.4247L149.37 49.42ZM147.68 49.4154V50.0904H149.133L147.959 49.4154H147.68Z" fill="#FCC730"></path> <path d="M147.68 48.5634V49.7319C147.685 49.8716 147.731 50.0019 147.811 50.1137C147.885 50.23 147.992 50.3185 148.122 50.3744C148.458 50.542 148.83 50.6304 149.202 50.6304C149.584 50.6304 149.957 50.542 150.292 50.3744C150.413 50.3185 150.515 50.23 150.59 50.123C150.669 50.0159 150.715 49.8902 150.729 49.7599V48.5914L147.68 48.5634Z" fill="#ED6B06"></path> <path d="M150.292 49.2293C150.418 49.1828 150.529 49.099 150.608 48.9872C150.688 48.8709 150.729 48.7405 150.729 48.6055C150.729 48.4658 150.688 48.3308 150.608 48.2191C150.529 48.112 150.418 48.0236 150.292 47.977C149.952 47.8094 149.584 47.7163 149.202 47.7163C148.83 47.7163 148.458 47.8094 148.122 47.977C147.992 48.0236 147.88 48.112 147.801 48.2191C147.722 48.3308 147.68 48.4658 147.68 48.6055C147.68 48.7405 147.722 48.8709 147.801 48.9872C147.88 49.099 147.992 49.1828 148.122 49.2293C148.458 49.3969 148.83 49.49 149.202 49.49C149.584 49.49 149.952 49.3969 150.292 49.2293Z" fill="#FCC917"></path> <path d="M82.1289 89.3531V91.6668C82.1568 92.0252 82.2825 92.3697 82.492 92.6677C82.6969 92.961 82.9855 93.1984 83.316 93.3427C84.2052 93.7943 85.1921 94.027 86.1883 94.027C87.1892 94.027 88.1762 93.7943 89.0653 93.3427C89.3912 93.1984 89.6752 92.9703 89.8847 92.6816C90.0942 92.3977 90.2245 92.0578 90.2664 91.7087V89.4043L82.1289 89.3531Z" fill="#C2ABD4"></path> <path d="M86.188 91.7229C88.4412 91.7229 90.2661 90.6708 90.2661 89.3812C90.2661 88.0871 88.4412 87.0396 86.188 87.0396C83.9395 87.0396 82.1146 88.0871 82.1146 89.3812C82.1146 90.6708 83.9395 91.7229 86.188 91.7229Z" fill="#ED6B06"></path> <path d="M84.6562 85.7595V89.0182C84.6702 89.1579 84.7214 89.2882 84.8006 89.3999C84.8797 89.5117 84.9868 89.6001 85.1125 89.6606C85.4477 89.8236 85.8154 89.9074 86.1878 89.9074C86.5649 89.9074 86.9327 89.8236 87.2679 89.6606C87.3889 89.6001 87.496 89.5117 87.5751 89.4046C87.6543 89.2929 87.7055 89.1672 87.7194 89.0322V85.7735L84.6562 85.7595Z" fill="#FCC917"></path> <path d="M96.229 72.2449L91.7552 74.8519V77.8639L90.1957 78.767H88.3196V85.3357L105.139 75.6386C102.309 74.1396 99.3154 73.0037 96.229 72.2449Z" fill="#FFE8A3"></path> <path d="M91.756 71.4257V74.852L96.2297 72.245C94.7587 71.8866 93.2643 71.6119 91.756 71.4257Z" fill="#FF910A"></path> <path d="M90.1964 71.2673V78.767L91.7559 77.8592V71.4255C91.2392 71.365 90.7178 71.3092 90.1964 71.2673Z" fill="#FF910A"></path> <path d="M89.8512 71.2393L88.8782 73.3528C88.5058 74.1582 88.3196 75.0334 88.3196 75.9179V78.767H90.1957V71.2673C90.0793 71.258 89.9676 71.2486 89.8512 71.2393Z" fill="#FF910A"></path> <path d="M87.0535 71.1372C86.8207 71.1372 86.5926 71.1419 86.3645 71.1465V85.7689L87.5609 85.7736L88.3197 85.3406V75.9182C88.3151 75.0337 88.5059 74.1585 88.8784 73.3532L89.8513 71.2397C88.9203 71.1745 87.9892 71.1372 87.0535 71.1372Z" fill="#FCC917"></path> <path d="M67.339 75.6386C62.2228 78.646 59.5599 82.5564 59.5599 86.4669H83.991L83.9817 85.2332L67.339 75.6386Z" fill="#FFE8A3"></path> <path d="M83.9909 86.4669H84.6612V85.7593L84.9033 85.7639L83.9816 85.2332L83.9909 86.4669Z" fill="#FCC917"></path> <path d="M113.086 86.5321L88.3196 86.6066V87.2537C88.3242 87.2956 88.3242 87.3421 88.3289 87.3887C89.1529 87.6773 89.7814 88.1382 90.0793 88.6782L105.298 97.3604C110.474 94.353 113.063 90.4426 113.086 86.5321Z" fill="#FFE8A3"></path> <path d="M88.32 86.6067L87.7195 86.6114V87.2119C87.9336 87.2585 88.1385 87.319 88.3293 87.3888C88.3247 87.3423 88.32 87.2957 88.32 87.2538V86.6067Z" fill="#FCC917"></path> <path d="M87.7195 87.2121V87.3378L90.0797 88.6785C89.7864 88.1385 89.1533 87.6823 88.3293 87.389C88.1338 87.3191 87.9336 87.2586 87.7195 87.2121Z" fill="#FF910A"></path> <path d="M81.8076 95.6753L74.0006 100.177C77.7202 101.341 81.6028 101.941 85.5225 101.941C85.7553 101.941 85.9834 101.937 86.2162 101.932V97.57C86.1696 97.57 86.1184 97.57 86.0672 97.57C84.9825 97.57 83.9118 97.3046 82.9435 96.8019C82.5757 96.6343 82.2592 96.3782 82.0264 96.057C81.9426 95.936 81.8681 95.8103 81.8076 95.6753ZM82.1893 88.939L67.4413 97.4396C69.0008 98.2636 70.6069 98.9805 72.2502 99.5857L81.6121 94.1902V91.9464C81.654 92.3421 81.8029 92.7191 82.0357 93.045C82.2685 93.3709 82.5804 93.6269 82.9435 93.7945C83.9118 94.302 84.9918 94.5626 86.0812 94.5626C86.1277 94.5626 86.1743 94.5626 86.2162 94.5626V94.5114C86.1836 94.5114 86.151 94.5114 86.1184 94.5114C85.0291 94.5114 83.9537 94.2461 82.9807 93.7433C82.6223 93.5757 82.3057 93.315 82.0729 92.9892C81.8402 92.6679 81.6959 92.2909 81.6493 91.8952C81.6633 91.6019 81.7424 91.3225 81.8821 91.0665C81.9519 90.9362 82.0357 90.8198 82.1288 90.708V89.5721C82.1195 89.507 82.1148 89.4465 82.1148 89.3813C82.1148 89.2277 82.1428 89.0787 82.1893 88.939Z" fill="#FFE8A3"></path> <path d="M81.6125 91.9465V94.1904L81.9291 94.0088L82.1852 93.9157L82.4552 93.9343L82.7019 94.0554L82.8741 94.2602L82.9672 94.5162L82.9533 94.7862L82.8276 95.0283L82.6228 95.2052L81.8081 95.6754C81.8686 95.8058 81.9431 95.9361 82.0269 96.0571C82.2596 96.3784 82.5762 96.6344 82.944 96.802C83.9076 97.3048 84.983 97.5701 86.0677 97.5701C86.1189 97.5701 86.1701 97.5701 86.2167 97.5701V94.5628C86.1748 94.5628 86.1282 94.5628 86.0817 94.5628C84.9923 94.5628 83.9123 94.3021 82.944 93.7947C82.5809 93.6271 82.2689 93.371 82.0362 93.0452C81.8034 92.7193 81.6544 92.3422 81.6125 91.9465Z" fill="#FF910A"></path> <path d="M82.1287 90.7079C82.0356 90.8149 81.9518 90.936 81.8819 91.0663C81.7423 91.3177 81.6631 91.6017 81.6492 91.895C81.6957 92.2907 81.84 92.6677 82.0728 92.989C82.3056 93.3148 82.6221 93.5709 82.9806 93.7431C83.9536 94.2459 85.0289 94.5112 86.1183 94.5112C86.1509 94.5112 86.1835 94.5112 86.216 94.5112V94.0318H86.1881C85.1919 94.0318 84.2049 93.7943 83.3158 93.3428C82.9852 93.1984 82.6966 92.961 82.4918 92.6677C82.2823 92.3698 82.1566 92.0253 82.1287 91.6669V90.7079Z" fill="#FCC917"></path> <path d="M82.1841 93.9156L81.928 94.0087L81.6115 94.1903L72.2496 99.5858C72.8269 99.7953 73.4135 99.9955 74 100.177L81.807 95.6753L82.6217 95.2051L82.8265 95.0282L82.9475 94.7862L82.9662 94.5162L82.8731 94.2601L82.7008 94.0553L82.4541 93.9342L82.1841 93.9156Z" fill="#FF910A"></path> <path d="M82.1289 89.5722V91.6671C82.1568 92.0255 82.2825 92.37 82.492 92.6679C82.6969 92.9612 82.9855 93.1987 83.316 93.343C84.2052 93.7945 85.1921 94.032 86.1883 94.032H86.2163V91.7183C86.207 91.7183 86.1977 91.7183 86.1883 91.7183C84.0562 91.7183 82.3012 90.7732 82.1289 89.5722Z" fill="#D9B587"></path> <path d="M84.6564 87.5145L82.1891 88.939C82.1426 89.0787 82.1146 89.2276 82.1146 89.3812C82.1146 89.4464 82.1193 89.5069 82.1286 89.5721C82.3008 90.7778 84.0512 91.7229 86.188 91.7229C86.1973 91.7229 86.2066 91.7229 86.216 91.7229V89.9073C86.2066 89.9073 86.1973 89.9073 86.188 89.9073C85.8156 89.9073 85.4478 89.8235 85.1126 89.6559C84.987 89.6 84.8799 89.5116 84.8007 89.3999C84.7216 89.2881 84.6704 89.1578 84.6564 89.0181V87.5145Z" fill="#FF910A"></path> <path d="M86.2158 86.6114L84.6562 87.5145V89.0182C84.6702 89.1579 84.7214 89.2882 84.8006 89.3999C84.8797 89.5117 84.9868 89.6001 85.1125 89.6606C85.4477 89.8236 85.8154 89.9074 86.1878 89.9074C86.1972 89.9074 86.2065 89.9074 86.2158 89.9074V86.6114ZM87.7194 86.6114H86.4579L87.7194 87.333V86.6114ZM86.3648 85.7688V86.4671L87.5658 85.7735L86.3648 85.7688ZM84.6562 85.7595V86.4671H86.1227L84.903 85.7641L84.6562 85.7595Z" fill="#FCC917"></path> <path d="M84.6619 84.9216V86.0948C84.6712 86.2298 84.7224 86.3601 84.8015 86.4672C84.8807 86.5789 84.9877 86.6674 85.1134 86.7186C85.444 86.8908 85.8164 86.9793 86.1888 86.9793C86.5659 86.9793 86.9337 86.8908 87.2688 86.7186C87.3899 86.6627 87.497 86.5789 87.5761 86.4719C87.6552 86.3648 87.7064 86.2391 87.7204 86.1087V84.9403L84.6619 84.9216Z" fill="#ED6B06"></path> <path d="M87.2691 85.5501C87.8697 85.2056 87.8697 84.647 87.2691 84.3118C86.934 84.1442 86.5662 84.0557 86.1891 84.0557C85.8167 84.0557 85.4443 84.1442 85.1137 84.3118C84.5132 84.647 84.5132 85.2056 85.1137 85.5501C85.4443 85.7177 85.8167 85.8108 86.1891 85.8108C86.5662 85.8108 86.934 85.7177 87.2691 85.5501Z" fill="#FCC917"></path> <defs> <linearGradient id="paint0_linear_143_4332" x1="25.9667" y1="44.8842" x2="29.0295" y2="44.8842" gradientUnits="userSpaceOnUse"> <stop stop-color="#BC93AB"></stop> <stop offset="0.03125" stop-color="#BC93AB"></stop> <stop offset="0.046875" stop-color="#BD94AC"></stop> <stop offset="0.0625" stop-color="#BE95AD"></stop> <stop offset="0.078125" stop-color="#BE95AE"></stop> <stop offset="0.09375" stop-color="#BE96AE"></stop> <stop offset="0.109375" stop-color="#BF96AF"></stop> <stop offset="0.125" stop-color="#BF97B0"></stop> <stop offset="0.140625" stop-color="#C098B0"></stop> <stop offset="0.15625" stop-color="#C198B0"></stop> <stop offset="0.1875" stop-color="#C199B1"></stop> <stop offset="0.203125" stop-color="#C29AB1"></stop> <stop offset="0.21875" stop-color="#C39BB2"></stop> <stop offset="0.234375" stop-color="#C39BB2"></stop> <stop offset="0.25" stop-color="#C39CB3"></stop> <stop offset="0.265625" stop-color="#C49CB3"></stop> <stop offset="0.28125" stop-color="#C49CB4"></stop> <stop offset="0.296875" stop-color="#C59DB4"></stop> <stop offset="0.3125" stop-color="#C59EB5"></stop> <stop offset="0.328125" stop-color="#C69EB5"></stop> <stop offset="0.34375" stop-color="#C79FB6"></stop> <stop offset="0.359375" stop-color="#C7A0B7"></stop> <stop offset="0.375" stop-color="#C8A1B7"></stop> <stop offset="0.390625" stop-color="#C9A1B7"></stop> <stop offset="0.40625" stop-color="#C9A2B8"></stop> <stop offset="0.421875" stop-color="#CAA2B9"></stop> <stop offset="0.4375" stop-color="#CAA3BA"></stop> <stop offset="0.453125" stop-color="#CAA4BA"></stop> <stop offset="0.46875" stop-color="#CBA5BB"></stop> <stop offset="0.484375" stop-color="#CCA5BB"></stop> <stop offset="0.5" stop-color="#CCA6BC"></stop> <stop offset="0.515625" stop-color="#CDA6BC"></stop> <stop offset="0.53125" stop-color="#CDA6BD"></stop> <stop offset="0.546875" stop-color="#CDA7BD"></stop> <stop offset="0.554688" stop-color="#CEA8BE"></stop> <stop offset="0.5625" stop-color="#CEA8BE"></stop> <stop offset="0.570312" stop-color="#CEA9BE"></stop> <stop offset="0.578125" stop-color="#CEAABE"></stop> <stop offset="0.59375" stop-color="#CEAABF"></stop> <stop offset="0.625" stop-color="#CFABBF"></stop> <stop offset="0.65625" stop-color="#D0ACC0"></stop> <stop offset="0.671875" stop-color="#D1ADC1"></stop> <stop offset="0.6875" stop-color="#D1AEC2"></stop> <stop offset="0.703125" stop-color="#D1AEC2"></stop> <stop offset="0.71875" stop-color="#D2AEC2"></stop> <stop offset="0.75" stop-color="#D3AFC3"></stop> <stop offset="0.765625" stop-color="#D3B0C4"></stop> <stop offset="0.78125" stop-color="#D4B1C5"></stop> <stop offset="0.796875" stop-color="#D5B1C6"></stop> <stop offset="0.8125" stop-color="#D5B2C6"></stop> <stop offset="0.828125" stop-color="#D5B3C7"></stop> <stop offset="0.84375" stop-color="#D6B3C7"></stop> <stop offset="0.859375" stop-color="#D6B4C8"></stop> <stop offset="0.875" stop-color="#D7B4C8"></stop> <stop offset="0.90625" stop-color="#D8B5C8"></stop> <stop offset="0.921875" stop-color="#D8B6C9"></stop> <stop offset="0.9375" stop-color="#D8B7CA"></stop> <stop offset="0.953125" stop-color="#D9B7CA"></stop> <stop offset="0.96875" stop-color="#DAB8CB"></stop> <stop offset="0.984375" stop-color="#DBB9CC"></stop> <stop offset="1" stop-color="#DCB9CC"></stop> </linearGradient> </defs> </svg> 