<?xml version="1.0" encoding="UTF-8"?> <svg xmlns="http://www.w3.org/2000/svg" width="170" height="138" viewBox="0 0 170 138" fill="none"> <path d="M11.3332 101.471L8.57682 109.076V116.484L0.783489 111.875L11.3332 101.471Z" fill="white"></path> <path d="M54.7915 88.6291L116.112 54.6483L129.056 62.3866L110.807 75.7477L60.3278 115.41L48.7597 108.871L54.7915 88.6291Z" fill="#FCC917"></path> <path d="M63.3472 93.5085C63.3472 98.9426 59.4898 105.58 54.791 108.309C50.1001 111.041 46.2349 108.863 46.2349 103.417C46.2349 97.9753 50.1001 91.3498 54.791 88.6091C59.4898 85.8685 63.3472 88.094 63.3472 93.5085Z" fill="#FCC917"></path> <path d="M119.332 60.975C119.332 66.417 115.479 73.0425 110.776 75.7831C106.085 78.5277 102.212 76.3258 102.212 70.8917C102.212 65.4576 106.077 58.8242 110.776 56.0836C115.479 53.3429 119.332 55.5213 119.332 60.975Z" fill="#4A302E"></path> <path d="M46.2551 104.853L62.2507 114.113L61.484 114.714L46.4675 105.997C46.3652 105.619 46.2945 105.238 46.2551 104.853Z" fill="#595959"></path> <path d="M46.3011 101.907L64.42 112.398L63.6572 113L46.2028 102.894C46.2343 102.568 46.3011 102.237 46.3011 101.907Z" fill="#595959"></path> <path d="M46.828 99.5521L66.3743 110.869L65.6114 111.466L46.5842 100.453C46.655 100.154 46.7376 99.8549 46.828 99.5521Z" fill="#595959"></path> <path d="M47.6314 97.3461L68.3494 109.327L67.5826 109.929L47.3011 98.1797C47.4033 97.8966 47.5213 97.6174 47.6314 97.3461Z" fill="#595959"></path> <path d="M48.8033 95.0579L70.5122 107.652L69.7494 108.254L48.359 95.8443C48.5084 95.5808 48.65 95.3213 48.8033 95.0579Z" fill="#595959"></path> <path d="M50.2614 92.9385L72.6859 105.926L71.931 106.528L49.7149 93.666L50.2614 92.9385Z" fill="#595959"></path> <path d="M52.1022 90.8544L74.9946 104.105L74.2279 104.699L51.4574 91.5229C51.6697 91.2909 51.8899 91.0707 52.1022 90.8544Z" fill="#595959"></path> <path d="M54.6367 88.9278L77.478 102.151L76.7231 102.749L53.7913 89.4822C54.0233 89.2856 54.3576 89.0654 54.6367 88.9278Z" fill="#373A36"></path> <path d="M57.417 87.3978L79.7825 100.338L79.0197 100.94L56.5008 87.9011L57.417 87.3978Z" fill="#373A36"></path> <path d="M60.1849 85.8686L82.0786 98.5377L81.3119 99.1354L59.2688 86.3719L60.1849 85.8686Z" fill="#373A36"></path> <path d="M62.9529 84.3272L84.3826 96.7367L83.6158 97.3266L62.0367 84.8384L62.9529 84.3272Z" fill="#373A36"></path> <path d="M65.7312 82.7976L86.6812 94.9241L85.9144 95.5257L64.7953 83.3009L65.7312 82.7976Z" fill="#5C4240"></path> <path d="M68.4907 81.2562L88.9728 93.1231L88.2178 93.7208L67.5746 81.7713L68.4907 81.2562Z" fill="#5C4240"></path> <path d="M71.2582 79.727L91.2684 91.3108L90.5056 91.9124L70.342 80.2421L71.2582 79.727Z" fill="#5C4240"></path> <path d="M74.0258 78.197L93.5642 89.5096L92.7975 90.1112L73.1097 78.7003L74.0258 78.197Z" fill="#5C4240"></path> <path d="M76.7941 76.656L95.8685 87.709L95.1018 88.2988L75.878 77.1671L76.7941 76.656Z" fill="#5C4240"></path> <path d="M79.5623 75.1264L98.1648 85.8963L97.398 86.498L78.6461 75.6376L79.5623 75.1264Z" fill="#5C4240"></path> <path d="M82.3317 73.5965L100.458 84.0951L99.6957 84.6967L81.4156 74.0998L82.3317 73.5965Z" fill="#5C4240"></path> <path d="M85.0987 72.0553L102.765 82.2826L101.999 82.8842L84.1707 72.5704L85.0987 72.0553Z" fill="#5C4240"></path> <path d="M87.8678 70.5258L105.059 80.4818L104.296 81.0834L86.9516 71.037L87.8678 70.5258Z" fill="#5C4240"></path> <path d="M90.6237 68.9959L107.355 78.6688L106.6 79.2704L89.7076 69.4992L90.6237 68.9959Z" fill="#5C4240"></path> <path d="M93.404 67.4548L109.659 76.8682L108.896 77.4698L92.4878 67.966L93.404 67.4548Z" fill="#5C4240"></path> <path d="M96.1712 65.9253L112.006 75.087L111.207 75.6689L95.2433 66.4365L96.1712 65.9253Z" fill="#5C4240"></path> <path d="M98.9399 64.392L114.401 73.3413L113.606 73.9233L98.0238 64.8992L98.9399 64.392Z" fill="#5C4240"></path> <path d="M101.708 62.8542L116.787 71.5913L115.989 72.1693L100.792 63.3654L101.708 62.8542Z" fill="#5C4240"></path> <path d="M104.477 61.3247L119.182 69.8376L118.388 70.4157L103.549 61.828L104.477 61.3247Z" fill="#5C4240"></path> <path d="M107.245 59.7914L121.578 68.0841L120.783 68.6661L106.329 60.2947L107.245 59.7914Z" fill="#5C4240"></path> <path d="M110.002 58.2537L123.964 66.3302L123.17 66.9121L109.085 58.7649L110.002 58.2537Z" fill="#5C4240"></path> <path d="M112.78 56.7202L126.357 64.5882L125.563 65.1662L111.864 57.2274L112.78 56.7202Z" fill="#5C4240"></path> <path d="M115.537 55.1827L128.756 62.8345L127.958 63.4164L114.621 55.6939L115.537 55.1827Z" fill="#5C4240"></path> <path d="M66.8787 95.4943L122.899 63.0666V82.6247L66.8787 115.052V95.4943Z" fill="#373A36"></path> <path d="M75.4333 100.378C75.4333 105.82 71.5681 112.445 66.8772 115.178C62.1784 117.911 58.321 115.729 58.321 110.334C58.321 104.939 62.1784 98.2665 66.8772 95.5337C71.5681 92.8009 75.4333 94.9321 75.4333 100.378Z" fill="#373A36"></path> <path d="M131.422 67.8244C131.422 73.2664 127.556 79.8919 122.865 82.6325C118.163 85.3732 114.298 83.1751 114.298 77.7882C114.298 72.4052 118.163 65.7208 122.865 62.9801C127.556 60.2395 131.422 62.3864 131.422 67.8244Z" fill="#3D1917"></path> <path d="M130.154 68.7248C130.154 73.5652 126.772 79.3768 122.604 81.791C118.428 84.2014 115.047 82.2629 115.047 77.4697C115.196 74.851 115.963 72.2991 117.28 70.0303C118.59 67.7615 120.422 65.8348 122.616 64.4035C126.772 61.9892 130.154 63.9277 130.154 68.7248Z" fill="#825C52"></path> <path d="M75.1232 101.483C75.1232 106.323 71.7416 112.135 67.5736 114.537C63.3939 116.94 60.0123 115.021 60.0123 110.216C60.0123 105.415 63.3939 99.564 67.5736 97.1615C71.7416 94.759 75.1232 96.6778 75.1232 101.483Z" fill="#373A36"></path> <path d="M131.112 69.1574C131.112 73.9545 127.726 79.8133 123.562 82.2157C119.382 84.6182 116.001 82.6994 116.001 77.9062C116.001 73.113 119.382 67.2503 123.562 64.84C127.726 62.4257 131.112 64.3564 131.112 69.1574Z" fill="#52362B"></path> <path d="M113.749 72.5114C113.706 73.1209 113.536 73.7146 113.234 74.2415C112.923 74.7724 112.498 75.2206 111.987 75.5509C111.02 76.1132 110.226 75.6689 110.226 74.5836C110.245 73.9663 110.426 73.3686 110.729 72.8339C111.04 72.2991 111.472 71.8469 111.987 71.5127C112.951 70.9504 113.749 71.3947 113.749 72.5114Z" fill="#825C52"></path> <path d="M114.401 72.8575C114.369 73.4669 114.188 74.0567 113.886 74.5876C113.575 75.1145 113.154 75.5588 112.639 75.8891C111.672 76.4514 110.889 76.007 110.889 74.9218C110.917 74.3123 111.098 73.7225 111.401 73.1956C111.703 72.6687 112.136 72.2205 112.639 71.8902C113.614 71.3004 114.401 71.7447 114.401 72.8575Z" fill="#52362B"></path> <path d="M92.0428 109.842L153.355 75.8612L166.3 83.6113L148.051 96.9685L97.5712 136.623L86.0149 130.092L92.0428 109.842Z" fill="#FCC917"></path> <path d="M100.6 114.722C100.6 120.168 96.7346 126.789 92.0437 129.534C87.3449 132.274 83.4797 130.073 83.4797 124.631C83.4797 119.189 87.3449 112.563 92.0437 109.83C96.7346 107.098 100.6 109.288 100.6 114.722Z" fill="#FCC917"></path> <path d="M156.589 82.1762C156.589 87.6221 152.723 94.2477 148.021 96.9765C143.33 99.7093 139.457 97.5309 139.457 92.085C139.457 86.6431 143.322 80.0175 148.021 77.2848C152.731 74.552 156.589 76.7343 156.589 82.1762Z" fill="#FCC917"></path> <path d="M83.7779 125.869L99.7853 135.141L99.0185 135.743L84.002 127.022C83.8998 126.644 83.829 126.259 83.7779 125.869Z" fill="#373A36"></path> <path d="M83.8483 122.897L101.967 133.387L101.204 133.989L83.7382 123.935C83.7696 123.553 83.8011 123.227 83.8483 122.897Z" fill="#373A36"></path> <path d="M84.3647 120.545L103.911 131.858L103.148 132.459L84.1209 121.446C84.1838 121.143 84.2742 120.844 84.3647 120.545Z" fill="#373A36"></path> <path d="M85.1693 118.324L105.875 130.317L105.121 130.918L84.8351 119.169C84.9373 118.886 85.0474 118.607 85.1693 118.324Z" fill="#373A36"></path> <path d="M86.3383 116.051L108.051 128.641L107.284 129.243L85.9058 116.833C86.0434 116.574 86.185 116.311 86.3383 116.051Z" fill="#373A36"></path> <path d="M87.8363 113.908L110.265 126.896L109.498 127.497L87.2819 114.636C87.4353 114.392 87.6043 114.14 87.8363 113.908Z" fill="#373A36"></path> <path d="M89.6486 111.844L112.529 125.087L111.762 125.685L88.9919 112.504C89.2042 112.312 89.4284 112.06 89.6486 111.844Z" fill="#373A36"></path> <path d="M92.1733 109.917L115.007 123.14L114.252 123.738L91.3279 110.459C91.6031 110.267 91.8823 110.082 92.1733 109.917Z" fill="#373A36"></path> <path d="M94.953 108.387L117.311 121.328L116.544 121.929L94.0369 108.891L94.953 108.387Z" fill="#373A36"></path> <path d="M97.7204 106.846L119.602 119.527L118.847 120.129L96.8042 107.361L97.7204 106.846Z" fill="#373A36"></path> <path d="M100.489 105.316L121.911 117.714L121.145 118.316L99.5732 105.82L100.489 105.316Z" fill="#373A36"></path> <path d="M103.257 103.787L124.203 115.913L123.44 116.515L102.329 104.29L103.257 103.787Z" fill="#373A36"></path> <path d="M106.027 102.246L126.501 114.113L125.746 114.702L105.111 102.761L106.027 102.246Z" fill="#373A36"></path> <path d="M108.781 100.716L128.803 112.3L128.041 112.901L107.865 101.219L108.781 100.716Z" fill="#373A36"></path> <path d="M111.563 99.1746L131.101 110.499L130.334 111.101L110.647 99.6897L111.563 99.1746Z" fill="#373A36"></path> <path d="M114.331 97.6451L133.406 108.686L132.643 109.288L113.403 98.1602L114.331 97.6451Z" fill="#373A36"></path> <path d="M117.099 96.1155L135.701 106.885L134.935 107.487L116.183 96.6188L117.099 96.1155Z" fill="#373A36"></path> <path d="M119.867 94.574L137.997 105.077L137.242 105.674L118.939 95.0891L119.867 94.574Z" fill="#373A36"></path> <path d="M122.635 93.0446L140.302 103.272L139.535 103.873L121.707 93.5597L122.635 93.0446Z" fill="#373A36"></path> <path d="M125.402 91.5149L142.593 101.463L141.83 102.061L124.486 92.0182L125.402 91.5149Z" fill="#373A36"></path> <path d="M128.159 89.9735L144.902 99.6621L144.135 100.26L127.243 90.4886L128.159 89.9735Z" fill="#373A36"></path> <path d="M130.938 88.4443L147.193 97.8576L146.431 98.4514L130.022 88.9594L130.938 88.4443Z" fill="#373A36"></path> <path d="M133.696 86.9143L149.542 96.076L148.748 96.658L132.78 87.4176L133.696 86.9143Z" fill="#373A36"></path> <path d="M136.476 85.3733L151.929 94.3227L151.131 94.9046L135.56 85.8884L136.476 85.3733Z" fill="#373A36"></path> <path d="M139.233 83.8437L154.324 92.569L153.53 93.1509L138.317 84.347L139.233 83.8437Z" fill="#373A36"></path> <path d="M142.011 82.3023L156.717 90.8269L155.923 91.4089L141.083 82.8174L142.011 82.3023Z" fill="#373A36"></path> <path d="M144.779 80.7727L159.104 89.0733L158.309 89.6552L143.851 81.2878L144.779 80.7727Z" fill="#373A36"></path> <path d="M147.536 79.2432L161.499 87.3196L160.704 87.9016L146.62 79.7465L147.536 79.2432Z" fill="#373A36"></path> <path d="M150.317 77.7017L163.894 85.5658L163.092 86.1478L149.389 78.2168L150.317 77.7017Z" fill="#373A36"></path> <path d="M153.073 76.1722L166.293 83.8122L165.487 84.4059L152.157 76.6833L153.073 76.1722Z" fill="#373A36"></path> <path d="M104.122 116.7L104.575 116.448L158.609 85.1885C159.085 84.8307 159.588 84.5083 160.111 84.2212C164.833 81.4806 168.667 83.6707 168.667 89.0655C168.667 94.4603 164.853 101.105 160.142 103.854L105.51 135.479C105.07 135.833 104.606 136.156 104.122 136.447C99.3922 139.18 95.5663 136.989 95.5663 131.555C95.5663 126.121 99.4315 119.441 104.122 116.7Z" fill="#373A36"></path> <path d="M95.7787 130.431L150.399 98.809C154.834 96.2217 158.479 90.2057 158.884 84.9761C159.273 84.6811 159.686 84.4098 160.111 84.1621C164.833 81.4215 168.667 83.6116 168.667 89.0064C168.667 94.4012 164.853 101.046 160.142 103.795L105.51 135.42C105.07 135.774 104.606 136.101 104.122 136.392C99.3922 139.12 95.5663 136.93 95.5663 131.5V130.529L95.7787 130.431Z" fill="#FCC917"></path> <path d="M155.613 103.669L145.838 97.6843L158.633 94.2163L155.613 103.669Z" fill="#373A36"></path> <path d="M100.863 136.796L95.8497 133.415C95.1026 129.911 96.4316 127.041 97.5719 124.922L102.149 132.727L100.863 136.796Z" fill="#373A36"></path> <path d="M111.672 122.181C111.672 127.021 108.302 132.837 104.123 135.235C99.9469 137.638 96.5732 135.719 96.5732 130.918C96.5732 126.113 99.9469 120.262 104.123 117.859C108.302 115.457 111.672 117.376 111.672 122.181Z" fill="#373A36"></path> <path d="M112.369 122.692C112.369 127.536 108.987 133.348 104.819 135.762C100.651 138.173 97.2696 136.246 97.2696 131.441C97.2696 126.636 100.651 120.785 104.819 118.383C108.995 115.98 112.369 117.899 112.369 122.692Z" fill="#373A36"></path> <path d="M109.286 124.293C109.207 125.885 108.743 127.434 107.949 128.814C107.143 130.195 106.038 131.366 104.709 132.235C102.161 133.706 100.108 132.534 100.108 129.609C100.199 128.016 100.663 126.471 101.457 125.091C102.251 123.711 103.368 122.543 104.709 121.678C107.233 120.203 109.286 121.375 109.286 124.293Z" fill="white"></path> <path d="M102.051 130.383C103.38 129.518 104.496 128.347 105.291 126.966C106.085 125.586 106.549 124.033 106.631 122.441C106.639 121.973 106.58 121.509 106.451 121.057C108.11 120.884 109.286 122.095 109.286 124.293C109.207 125.885 108.743 127.434 107.949 128.814C107.143 130.195 106.038 131.366 104.709 132.235C102.613 133.446 100.843 132.864 100.297 131.005C100.922 130.922 101.516 130.71 102.051 130.383Z" fill="#595959"></path> <path d="M106.399 125.272C106.359 126.07 106.127 126.852 105.722 127.548C105.321 128.24 104.767 128.834 104.095 129.27C102.813 130.006 101.787 129.416 101.787 127.945C101.83 127.139 102.058 126.357 102.463 125.661C102.864 124.965 103.418 124.371 104.095 123.935C105.373 123.207 106.399 123.797 106.399 125.272Z" fill="#373A36"></path> <path d="M167.196 89.2185C167.196 94.0628 163.815 99.8744 159.647 102.285C155.471 104.695 152.089 102.768 152.089 97.9634C152.089 93.1624 155.471 87.3115 159.647 84.909C163.815 82.5065 167.196 84.4254 167.196 89.2185Z" fill="#373A36"></path> <path d="M167.88 89.7418C167.88 94.5861 164.51 100.398 160.342 102.808C156.174 105.218 152.793 103.292 152.793 98.4906C152.793 93.6856 156.163 87.8347 160.342 85.4322C164.51 83.0298 167.88 84.9486 167.88 89.7418Z" fill="#373A36"></path> <path d="M164.81 91.338C164.719 92.9305 164.267 94.4797 163.461 95.8599C162.667 97.24 161.562 98.4118 160.221 99.2847C157.685 100.755 155.633 99.5717 155.633 96.6581C155.723 95.0656 156.187 93.5164 156.981 92.1362C157.775 90.7561 158.892 89.5843 160.221 88.7153C162.757 87.2526 164.81 88.4244 164.81 91.338Z" fill="white"></path> <path d="M157.575 97.4325C158.904 96.5635 160.021 95.3918 160.815 94.0116C161.609 92.6315 162.073 91.0823 162.156 89.4898C162.164 89.0219 162.105 88.5539 161.975 88.1057C163.634 87.9287 164.81 89.1398 164.81 91.3378C164.719 92.9303 164.267 94.4796 163.461 95.8597C162.667 97.2399 161.562 98.4116 160.221 99.2845C158.137 100.492 156.368 99.9137 155.821 98.0538C156.439 97.9712 157.04 97.7589 157.575 97.4325Z" fill="#595959"></path> <path d="M162.214 92.0577C162.175 92.8598 161.943 93.6384 161.538 94.3343C161.137 95.0303 160.574 95.6201 159.91 96.0566C158.632 96.7919 157.594 96.2021 157.594 94.7315C157.645 93.9293 157.877 93.1469 158.278 92.4548C158.671 91.7588 159.234 91.169 159.91 90.7286C161.156 90.0327 162.214 90.5832 162.214 92.0577Z" fill="#373A36"></path> <path d="M113.103 117.687C113.103 117.278 113.213 116.873 113.413 116.519C113.614 116.165 113.917 115.866 114.271 115.662L143.501 98.7499C143.741 98.6319 144.005 98.5729 144.276 98.5729C144.547 98.5729 144.811 98.6319 145.051 98.7499C145.806 99.0605 147.85 100.126 147.85 100.688L145.825 102.623C145.825 103.441 145.605 104.239 145.204 104.947C144.791 105.651 144.205 106.237 143.501 106.645L117.09 124.281C116.543 124.591 114.44 123.148 113.968 122.743C113.704 122.582 113.496 122.362 113.343 122.102C113.193 121.839 113.111 121.544 113.103 121.241V117.687Z" fill="#373A36"></path> <path d="M115.537 119.091C115.537 118.678 115.647 118.277 115.852 117.919C116.06 117.565 116.355 117.27 116.705 117.066L145.936 100.146C146.168 100.008 146.439 99.9336 146.715 99.9336C146.986 99.9336 147.245 100.008 147.489 100.146C147.721 100.28 147.922 100.476 148.052 100.712C148.181 100.948 148.264 101.219 148.252 101.491V104.019C148.252 104.833 148.04 105.635 147.639 106.339C147.226 107.047 146.644 107.633 145.936 108.038L118.136 124.135C117.873 124.289 117.582 124.371 117.279 124.371C116.969 124.371 116.678 124.289 116.414 124.135C116.143 123.986 115.931 123.766 115.769 123.502C115.62 123.239 115.537 122.94 115.537 122.633V119.091Z" fill="#595959"></path> <path d="M137.754 109.626C138.076 109.441 138.339 109.178 138.528 108.859C138.709 108.537 138.811 108.175 138.811 107.806V106.665C138.823 106.602 138.823 106.54 138.811 106.481L139.083 106.315C139.185 106.252 139.315 106.221 139.436 106.221C139.554 106.221 139.676 106.252 139.786 106.315C139.889 106.378 139.979 106.465 140.038 106.571C140.101 106.681 140.129 106.803 140.129 106.925V108.069C140.129 108.443 140.018 108.808 139.83 109.127C139.637 109.449 139.366 109.713 139.031 109.89L126.48 117.152C126.358 117.223 126.217 117.262 126.087 117.262C125.946 117.262 125.816 117.223 125.694 117.152C125.545 117.07 125.434 116.94 125.364 116.786L137.754 109.626Z" fill="#373A36"></path> <path d="M84.0298 100.406C84.0298 104.283 84.4859 112.689 81.0808 114.655C79.3821 115.623 74.6401 112.135 73.5234 111.498C72.4067 110.857 71.7225 109.493 71.7225 107.534C71.8404 105.399 72.4656 103.323 73.5312 101.471C74.6007 99.6192 76.091 98.0464 77.8801 96.8786C81.2852 94.8771 84.0298 96.4932 84.0298 100.406Z" fill="#595959"></path> <path d="M89.6101 103.594C89.4882 105.729 88.863 107.806 87.7974 109.658C86.7318 111.51 85.2416 113.082 83.4486 114.246C80.0552 116.185 77.2871 114.636 77.2871 110.723C77.4089 108.584 78.0223 106.504 79.0997 104.652C80.1653 102.8 81.6556 101.227 83.4486 100.067C86.8695 98.1013 89.6101 99.7174 89.6101 103.594Z" fill="#373A36"></path> <path d="M120.61 40.2174L169.112 68.2883L168.758 69.8454L96.1098 111.215L47.8242 82.4477L120.61 40.2174Z" fill="#595959"></path> <path d="M71.5294 68.6935V96.5717L47.8231 82.4478L71.5294 68.6935Z" fill="#373A36"></path> <path d="M47.8346 82.4005L95.8372 110.255V114.061L47.8228 86.2067L47.8346 82.4005Z" fill="#595959"></path> <path d="M87.5958 24.7488C88.3783 24.2887 89.2748 24.0449 90.1909 24.0449C91.0992 24.0449 91.9918 24.2887 92.7782 24.7488L138.681 51.2862L107.96 69.5663L58.8564 41.806L87.5958 24.7488Z" fill="#FCC917"></path> <path d="M16.3084 88.7235L38.0212 59.5791L35.7249 60.1532L16.0057 88.2005L16.3084 88.7235Z" fill="white"></path> <path d="M63.8313 92.223L54.6696 62.0995L53.03 54.8134L46.3651 55.8515L53.7928 86.4665L63.8313 92.223Z" fill="#595959"></path> <path d="M63.8313 92.2227L53.7417 86.5527L52.6761 81.8382L62.3882 87.4649L63.8313 92.2227Z" fill="#595959"></path> <path d="M54.6686 62.0993L58.5142 74.7566L59.7606 79.7071L50.9135 74.5836L46.3641 55.8513L46.4624 55.8395L54.2636 60.3535L54.6686 62.0993Z" fill="#595959"></path> <path d="M34.7778 58.1555L53.3803 74.1078L53.7932 70.7381L35.403 57.314L34.7778 58.1555Z" fill="white"></path> <path d="M34.7777 58.1555L35.4029 57.314L43.8372 63.4716" fill="#52362B"></path> <path d="M64.18 91.8452L52.2738 58.3205L59.3082 41.5346L83.4864 54.6401L84.1824 79.6991L64.18 91.8452Z" fill="#FCC917"></path> <path d="M83.5764 57.6522L75.2837 88.8688L63.8178 92.2582L62.1074 87.3392L75.2641 53.1776L77.6901 51.5772L81.8778 53.7674L83.486 54.6403L83.5764 57.6522Z" fill="#FCC917"></path> <path d="M115.458 1.67533C116.221 1.22707 117.098 0.99115 117.994 0.99115C118.879 0.99115 119.756 1.22707 120.518 1.67533L166.814 28.602L139.636 44.5544L91.0084 15.8071L115.458 1.67533Z" fill="#F5BA00"></path> <path d="M90.9856 15.7876L139.031 43.831L135.791 53.4292L87.0418 24.9808C87.0103 20.2938 88.3905 17.0105 90.9856 15.7876Z" fill="#F5BA00"></path> <path d="M130.527 46.9413V53.4096L112.77 64.5098L97.954 55.9379V49.4657L130.527 46.9413Z" fill="white"></path> <path d="M112.77 50.5824V64.5098L97.9537 55.9379V49.4657L112.77 50.5824Z" fill="#F5BA00"></path> <path d="M115.719 38.2594L130.527 46.8431L112.77 57.9432L97.954 49.3714L115.719 38.2594Z" fill="#FFE373"></path> <path d="M115.356 39.7142L127.919 46.9885L112.851 56.4019L100.288 49.1276L115.356 39.7142Z" fill="#FCC917"></path> <path d="M104.324 51.463L115.357 44.5662L123.882 49.5166L112.853 56.4017L104.324 51.463Z" fill="#595959"></path> <path d="M108.652 43.9645L121.164 51.2702L117.087 53.8733L107.245 43.9763L108.652 43.9645Z" fill="#FFE373"></path> <path d="M107.729 44.4799L120.248 51.7896L116.163 54.3887L107.729 49.4776V44.4799Z" fill="#FCC917"></path> <path d="M135.327 53.158V53.1108C136.145 48.5299 137.159 43.7722 141.178 41.4876L166.504 28.6141V62.3L107.315 96.6779V69.4091L135.327 53.158Z" fill="#FCC917"></path> <path d="M169.17 67.5608L95.6288 110.2V114.006L169.17 71.3671V67.5608Z" fill="white"></path> <path d="M99.3146 64.2187L107.395 68.8978V96.8233L99.3146 92.1323V64.2187Z" fill="#F5BA00"></path> <path d="M98.2638 60.7033L86.0548 67.7849L81.2144 102.544L98.2638 92.6591V60.7033Z" fill="#595959"></path> <path d="M98.7085 58.7454L97.4817 58.128V91.9319L98.7085 91.1848V58.7454Z" fill="white"></path> <path d="M99.9985 59.5513L98.5673 60.4792L98.5594 92.8007L99.9985 92.5216V59.5513Z" fill="#FCC917"></path> <path d="M70.6261 58.0964L86.3071 67.1716L81.2938 102.8L65.6206 93.7208L70.6261 58.0964Z" fill="#595959"></path> <path d="M70.4914 63.0272H71.5294L68.5882 88.0547H67.5541L70.4914 63.0272Z" fill="white"></path> <path d="M80.2467 93.3826L79.8024 94.3224L67.554 86.5566L67.9944 85.6168L80.2467 93.3826Z" fill="white"></path> <path d="M97.4293 88.9946L98.5657 89.9344L83.557 98.6439L82.4285 97.712L97.4293 88.9946Z" fill="white"></path> <path d="M99.3131 80.2301L99.3209 81.7518L83.3253 91.0197L83.3175 89.4901L99.3131 80.2301Z" fill="#FCC917"></path> <path d="M85.2478 65.5751L82.7706 64.0652L78.2723 101.762L80.7495 103.264L85.2478 65.5751Z" fill="#F5BA00"></path> <path d="M70.924 62.6418L68.8006 61.3403L64.9158 93.8309L67.0509 95.1285L70.924 62.6418Z" fill="#F5BA00"></path> <path d="M81.3946 99.6229L99.946 89.0457V92.4823L81.3946 103.071V99.6229Z" fill="#FCC917"></path> <path d="M66.0834 85.4912L82.2009 95.341L80.1759 103.815L64.8448 94.2282L66.0834 85.4912Z" fill="#F5BA00"></path> <path d="M87.5449 64.4232L84.6745 66.0865L80.1645 103.787L83.0467 102.112L87.5449 64.4232Z" fill="#FCC917"></path> <path d="M66.5054 57.247L83.0239 66.1374L82.5914 71.2215L66.5054 61.8082V57.247Z" fill="#FCC917"></path> <path d="M100.418 58.8907L82.4921 66.1454V71.1745L100.418 60.7821V58.8907Z" fill="#FCC917"></path> <path d="M66.689 57.3299L84.7568 49.7882L100.56 58.9302L82.4801 66.4758L66.689 57.3299Z" fill="#F5BA00"></path> <path d="M30.0152 55.5131C29.9051 57.3651 29.3743 59.166 28.4463 60.7703C27.5105 62.3746 26.2208 63.739 24.6716 64.7495C21.7225 66.456 19.3279 65.0995 19.3279 61.71C19.4262 59.858 19.9728 58.0572 20.8968 56.4489C21.8326 54.8447 23.1223 53.4802 24.6716 52.4697C27.6324 50.7553 30.027 52.1198 30.0152 55.5131Z" fill="#595959"></path> <path d="M26.8582 56.6457C26.7953 57.727 26.4847 58.7768 25.942 59.7166C25.3955 60.6524 24.6405 61.4506 23.7362 62.0404C22.0061 63.0077 20.6141 62.241 20.6141 60.2553C20.677 59.174 20.9995 58.1241 21.5303 57.1883C22.0768 56.2485 22.8318 55.4543 23.7362 54.8644C25.4663 53.8657 26.8582 54.66 26.8582 56.6457Z" fill="white"></path> </svg> 