<?xml version="1.0" encoding="UTF-8"?> <svg xmlns="http://www.w3.org/2000/svg" width="188" height="149" viewBox="0 0 188 149" fill="none"> <path d="M137.619 68.2635L63.5803 27.3433L47.9571 36.6725L69.9861 52.7473L130.933 100.502L144.895 92.6434L137.619 68.2635Z" fill="#4A302E"></path> <path d="M127.289 74.1244C127.289 80.6791 131.912 88.6583 137.62 91.9589C143.327 95.2549 147.954 92.6246 147.954 86.0699C147.954 79.5199 143.327 71.536 137.62 68.2401C131.912 64.9394 127.289 67.5837 127.289 74.1244Z" fill="#4A302E"></path> <path d="M59.6878 34.9406C59.6878 41.4906 64.3106 49.4745 70.018 52.7611C75.7254 56.0478 80.3528 53.4222 80.3528 46.8721C80.3528 40.3221 75.7254 32.3382 70.018 29.0423C64.3106 25.7416 59.6878 28.4464 59.6878 34.9406Z" fill="#4A302E"></path> <path d="M147.93 87.7925L128.615 98.9466L129.537 99.6682L147.66 89.1984C147.786 88.7375 147.874 88.2673 147.93 87.7925Z" fill="#5C4240"></path> <path d="M147.851 84.2451L125.98 96.875L126.902 97.5966L147.977 85.4276C147.954 85.0458 147.912 84.6501 147.851 84.2451Z" fill="#5C4240"></path> <path d="M147.231 81.4102L123.592 95.0409L124.518 95.7625L147.525 82.4809C147.436 82.1317 147.311 81.7686 147.231 81.4102Z" fill="#5C4240"></path> <path d="M146.254 78.7427L121.25 93.1835L122.177 93.905L146.668 79.7529C146.547 79.4177 146.403 79.1011 146.254 78.7427Z" fill="#5C4240"></path> <path d="M144.848 76.0049L118.639 91.1347L119.565 91.8562L145.374 76.9499C145.206 76.624 145.062 76.3075 144.848 76.0049Z" fill="#5C4240"></path> <path d="M143.093 73.4731L116.004 89.1104L116.916 89.8319L143.745 74.353C143.531 74.0039 143.317 73.7106 143.093 73.4731Z" fill="#5C4240"></path> <path d="M140.841 70.9404L113.225 86.8942L114.152 87.6111L141.641 71.7411C141.381 71.4711 141.111 71.2197 140.841 70.9404Z" fill="#5C4240"></path> <path d="M137.801 68.6221L110.232 84.5386L111.144 85.2602L138.825 69.2878C138.49 69.0504 138.15 68.8222 137.801 68.6221Z" fill="#5C4240"></path> <path d="M134.444 66.7734L107.453 82.3687L108.375 83.0857L135.562 67.3926L134.444 66.7734Z" fill="#5C4240"></path> <path d="M131.101 64.9302L104.668 80.195L105.595 80.9165L132.219 65.5493L131.101 64.9302Z" fill="#5C4240"></path> <path d="M127.772 63.082L101.903 78.0209L102.825 78.7425L128.876 63.7012L127.772 63.082Z" fill="#5C4240"></path> <path d="M124.425 61.2388L99.1192 75.8378L100.046 76.5687L125.529 61.8579L124.425 61.2388Z" fill="#5C4240"></path> <path d="M121.082 59.3906L96.3488 73.6638L97.2752 74.3854L122.186 60.0005L121.082 59.3906Z" fill="#5C4240"></path> <path d="M117.742 57.542L93.5713 71.4893L94.493 72.2109L118.845 58.1518L117.742 57.542Z" fill="#5C4240"></path> <path d="M114.397 55.6987L90.7996 69.3202L91.726 70.0418L115.51 56.3039L114.397 55.6987Z" fill="#5C4240"></path> <path d="M111.057 53.8506L88.0221 67.1462L88.9438 67.8677L112.169 54.4604L111.057 53.8506Z" fill="#5C4240"></path> <path d="M107.709 52.0073L85.2514 64.977L86.1732 65.694L108.826 52.6125L107.709 52.0073Z" fill="#5C4240"></path> <path d="M104.366 50.1587L82.4719 62.8025L83.3937 63.5194L105.483 50.7685L104.366 50.1587Z" fill="#5C4240"></path> <path d="M101.023 48.3154L79.7013 60.6194L80.623 61.3503L102.135 48.9206L101.023 48.3154Z" fill="#5C4240"></path> <path d="M97.6894 46.4673L76.922 58.4454L77.8438 59.167L98.7927 47.0771L97.6894 46.4673Z" fill="#5C4240"></path> <path d="M94.3488 44.6191L74.1541 56.2714L75.0758 56.993L95.4521 45.229L94.3488 44.6191Z" fill="#5C4240"></path> <path d="M91.0053 42.7617L71.3739 54.1021L72.2956 54.819L92.1086 43.3855L91.0053 42.7617Z" fill="#5C4240"></path> <path d="M87.6628 40.9185L68.5341 51.9609L69.5024 52.6592L88.7661 41.5376L87.6628 40.9185Z" fill="#5C4240"></path> <path d="M84.3156 39.0703L65.6524 49.8567L66.6114 50.555L85.4329 39.6895L84.3156 39.0703Z" fill="#5C4240"></path> <path d="M80.9726 37.2266L62.761 47.7383L63.7153 48.4366L82.0898 37.8457L80.9726 37.2266Z" fill="#5C4240"></path> <path d="M77.6293 35.3779L59.8786 45.6336L60.8329 46.3319L78.7419 35.9971L77.6293 35.3779Z" fill="#5C4240"></path> <path d="M74.2976 33.5347L56.9844 43.5296L57.9434 44.2279L75.4009 34.1399L74.2976 33.5347Z" fill="#5C4240"></path> <path d="M70.9555 31.6865L54.094 41.4115L55.0623 42.1098L72.0588 32.2964L70.9555 31.6865Z" fill="#5C4240"></path> <path d="M67.6123 29.8384L51.2116 39.3073L52.1659 40.0056L68.7156 30.4482L67.6123 29.8384Z" fill="#5C4240"></path> <path d="M64.2692 27.9951L48.3155 37.2033L49.2745 37.9016L65.3726 28.6003L64.2692 27.9951Z" fill="#5C4240"></path> <path d="M123.019 76.5219L55.3957 37.4824V61.0243L123.019 100.073V76.5219Z" fill="#331F1F"></path> <path d="M112.684 82.4018C112.684 88.9518 117.312 96.9357 123.033 100.232C128.75 103.532 133.363 100.883 133.363 94.3334C133.363 87.7834 128.74 79.7995 123.033 76.5128C117.325 73.2262 112.684 75.8471 112.684 82.4018Z" fill="#331F1F"></path> <path d="M45.098 43.2132C45.098 49.7633 49.7254 57.7378 55.4281 61.0338C61.1355 64.3344 65.7676 61.6995 65.7676 55.1495C65.7676 48.5948 61.1355 40.6156 55.4281 37.3149C49.7254 34.019 45.098 36.6632 45.098 43.2132Z" fill="#3D1917"></path> <path d="M46.6162 44.2933C46.6162 50.0706 50.7036 57.1047 55.7453 60.0562C60.787 63.003 64.8511 60.6288 64.8511 54.8516C64.8511 49.079 60.7777 42.0308 55.7453 39.0933C50.7129 36.1558 46.6162 38.5067 46.6162 44.2933Z" fill="#825C52"></path> <path d="M113.914 83.1092C113.914 88.8865 117.987 95.9206 123.029 98.8675C128.075 101.819 132.149 99.4447 132.149 93.6675C132.149 87.8949 128.061 80.8467 123.029 77.9092C118.001 74.9717 113.914 77.3227 113.914 83.1092Z" fill="#825C52"></path> <path d="M113.066 83.7287C113.066 89.5153 117.153 96.5495 122.185 99.487C127.218 102.429 131.305 100.074 131.305 94.3009C131.305 88.5237 127.227 81.4802 122.185 78.5381C117.144 75.6005 113.066 77.9748 113.066 83.7287Z" fill="#402621"></path> <path d="M116.74 85.9673C116.852 87.9505 117.424 89.8731 118.425 91.5909C119.417 93.3041 120.804 94.7612 122.471 95.8412C125.632 97.6754 128.197 96.2137 128.197 92.5779C128.085 90.5947 127.512 88.672 126.512 86.9542C125.52 85.2411 124.133 83.784 122.471 82.7039C119.305 80.879 116.74 82.3455 116.74 85.9673Z" fill="#331F1F"></path> <path d="M45.4807 44.8143C45.4807 50.5869 49.5541 57.6351 54.6005 60.5726C59.6422 63.5101 63.7063 61.1592 63.7063 55.3726C63.7063 49.586 59.6329 42.5472 54.6005 39.6097C49.5681 36.6722 45.4807 39.0371 45.4807 44.8143Z" fill="#52362B"></path> <path d="M66.4389 48.8555C66.4854 49.5863 66.6996 50.3033 67.072 50.9364C67.4444 51.5742 67.9519 52.1142 68.5664 52.5145C69.6929 53.1896 70.6845 52.6495 70.6985 51.3088C70.6519 50.5733 70.4378 49.861 70.0654 49.2232C69.6929 48.5901 69.1902 48.0501 68.5664 47.6497C67.3886 46.9747 66.4389 47.5147 66.4389 48.8555Z" fill="#825C52"></path> <path d="M65.6421 49.27C65.6886 50.0055 65.8981 50.7178 66.2705 51.3556C66.6336 51.9887 67.1504 52.5287 67.7695 52.9291C68.8961 53.6041 69.8831 53.0641 69.8831 51.7234C69.8412 50.9925 69.6363 50.2756 69.2686 49.6424C68.8961 49.0093 68.3887 48.4693 67.7695 48.0643C66.5964 47.3893 65.6421 47.9293 65.6421 49.27Z" fill="#52362B"></path> <path d="M92.6476 93.8022L18.6094 52.896L2.98152 62.2159L25.0151 78.3047L85.9579 126.054L99.9192 118.187L92.6476 93.8022Z" fill="#FCC917"></path> <path d="M82.3143 99.6824C82.3143 106.232 86.9417 114.212 92.6491 117.503C98.3565 120.79 102.984 118.164 102.984 111.614C102.984 105.059 98.3565 97.1126 92.6491 93.7375C86.9417 90.3578 82.3143 93.1277 82.3143 99.6824Z" fill="#5C4240"></path> <path d="M14.7274 60.4845C14.7274 67.0345 19.3408 75.0184 25.0575 78.3144C30.7789 81.615 35.3923 78.9661 35.3923 72.4254C35.3923 65.8847 30.765 57.8962 25.0575 54.5955C19.3501 51.2949 14.7134 53.9438 14.7274 60.4845Z" fill="#FCC917"></path> <path d="M102.611 113.052L83.2915 124.211L84.2179 124.928L102.35 114.463C102.476 113.997 102.555 113.527 102.611 113.052Z" fill="#4A302E"></path> <path d="M102.54 109.496L80.6604 122.125L81.5821 122.847L102.657 110.678C102.633 110.306 102.601 109.915 102.54 109.496Z" fill="#4A302E"></path> <path d="M101.913 106.684L78.2729 120.306L79.1947 121.036L102.173 107.764C102.127 107.401 102.024 107.043 101.913 106.684Z" fill="#4A302E"></path> <path d="M100.945 104.016L75.9416 118.503L76.8541 119.22L101.35 104.994C101.225 104.677 101.094 104.351 100.945 104.016Z" fill="#4A302E"></path> <path d="M99.5231 101.27L73.3183 116.395L74.2401 117.116L100.031 102.215L99.5231 101.27Z" fill="#4A302E"></path> <path d="M97.7833 98.6997L70.6987 114.337L71.6204 115.058L98.4351 99.5656C98.2116 99.277 97.9928 98.9837 97.7833 98.6997Z" fill="#4A302E"></path> <path d="M95.5306 96.2139L67.906 112.163L68.8277 112.885L96.3174 97.0146C96.0613 96.7306 95.8006 96.4699 95.5306 96.2139Z" fill="#595959"></path> <path d="M92.48 93.8813L64.9112 109.812L65.833 110.533L93.5042 94.5471C93.1643 94.3096 92.8291 94.0955 92.48 93.8813Z" fill="#595959"></path> <path d="M89.1244 92.0474L62.1283 107.638L63.0547 108.36L90.2371 92.6572L89.1244 92.0474Z" fill="#595959"></path> <path d="M85.7912 90.2041L59.3583 105.455L60.2847 106.186L86.8945 90.8093L85.7912 90.2041Z" fill="#595959"></path> <path d="M82.4482 88.356L56.5786 103.281L57.5004 104.002L83.5515 88.9611L82.4482 88.356Z" fill="#595959"></path> <path d="M79.1049 86.5073L53.808 101.111L54.7204 101.828L80.2083 87.1172L79.1049 86.5073Z" fill="#595959"></path> <path d="M75.7644 84.6641L51.0307 98.9373L51.9524 99.6588L76.8677 85.2693L75.7644 84.6641Z" fill="#595959"></path> <path d="M72.4199 82.8159L48.2588 96.7633L49.1852 97.4848L73.5325 83.4258L72.4199 82.8159Z" fill="#595959"></path> <path d="M69.0751 80.9727L45.482 94.5895L46.4037 95.311L70.1924 81.5778L69.0751 80.9727Z" fill="#595959"></path> <path d="M65.7314 79.124L42.7108 92.4196L43.6233 93.1412L66.844 79.7339L65.7314 79.124Z" fill="#595959"></path> <path d="M62.3884 77.2759L39.9311 90.2363L40.8529 90.9579L63.501 77.8857L62.3884 77.2759Z" fill="#595959"></path> <path d="M59.0549 75.4185L37.1609 88.0623L38.0827 88.7839L60.1582 76.0423L59.0549 75.4185Z" fill="#595959"></path> <path d="M55.7119 73.5752L34.3812 85.8885L35.303 86.6101L56.8152 74.1944L55.7119 73.5752Z" fill="#595959"></path> <path d="M52.3718 71.7271L31.6137 83.7191L32.5355 84.4361L53.4751 72.3462L52.3718 71.7271Z" fill="#595959"></path> <path d="M49.027 69.8838L28.8276 81.5454L29.754 82.2669L50.1396 70.5029L49.027 69.8838Z" fill="#595959"></path> <path d="M45.6818 68.0352L26.0643 79.3709L26.9721 80.0924L46.7991 68.6543L45.6818 68.0352Z" fill="#595959"></path> <path d="M42.339 66.1919L23.2243 77.2343L24.1833 77.9326L43.4563 66.7971L42.339 66.1919Z" fill="#595959"></path> <path d="M38.9955 64.3433L20.3324 75.1157L21.2867 75.814L40.1082 64.9624L38.9955 64.3433Z" fill="#595959"></path> <path d="M35.6618 62.4956L17.4502 73.012L18.4046 73.7103L36.7651 63.1055L35.6618 62.4956Z" fill="#595959"></path> <path d="M32.3191 60.6523L14.5544 70.908L15.5134 71.6063L33.4224 61.2575L32.3191 60.6523Z" fill="#595959"></path> <path d="M28.9785 58.8037L11.6747 68.7894L12.6337 69.5016L30.0818 59.4136L28.9785 58.8037Z" fill="#595959"></path> <path d="M25.6355 56.9604L8.78322 66.6854L9.73756 67.3837L26.7388 57.5656L25.6355 56.9604Z" fill="#595959"></path> <path d="M22.2934 55.1118L5.88805 64.5807L6.84705 65.279L23.406 55.7217L22.2934 55.1118Z" fill="#595959"></path> <path d="M18.9457 53.2686L3.00591 62.4628L3.96491 63.1704L20.063 53.8737L18.9457 53.2686Z" fill="#595959"></path> <path d="M78.0584 102.057L77.5091 101.763L12.2136 64.0832C11.641 63.6363 11.0452 63.2313 10.412 62.8681C4.70461 59.5722 0.0818827 62.2071 0.0818827 68.7571C0.0818827 75.3071 4.6953 83.2538 10.3794 86.5684L76.3918 124.649C76.9318 125.059 77.4951 125.436 78.0817 125.775C83.7891 129.071 88.4165 126.441 88.4165 119.886C88.4165 113.336 83.7658 105.353 78.0584 102.057Z" fill="#383836"></path> <path d="M88.1325 118.592L22.19 80.5209C16.8317 77.4018 12.4277 70.1535 11.9343 63.8595C11.4594 63.4964 10.9753 63.1705 10.4586 62.8819C4.75113 59.5813 0.123745 62.2162 0.123745 68.7662C0.123745 75.3209 4.74182 83.2675 10.426 86.5774L76.3918 124.649C76.9318 125.058 77.4951 125.435 78.0817 125.775C83.7891 129.071 88.4165 126.441 88.4165 119.886V118.76L88.1325 118.592Z" fill="#FCC917"></path> <path d="M82.0203 126.26L88.0769 122.186C88.98 117.973 87.3553 114.505 85.982 111.949L80.4561 121.353L82.0203 126.26Z" fill="#331F1F"></path> <path d="M68.9384 108.653C68.9384 114.426 73.0258 121.474 78.0582 124.411C83.0906 127.349 87.178 124.998 87.178 119.211C87.178 113.425 83.0906 106.4 78.0582 103.453C73.0258 100.502 68.9384 102.876 68.9384 108.653Z" fill="#383836"></path> <path d="M68.1052 109.281C68.1052 115.059 72.1833 122.107 77.225 125.044C82.2667 127.982 86.3447 125.617 86.3447 119.84C86.3447 114.067 82.2574 107.019 77.225 104.081C72.1926 101.144 68.1052 103.509 68.1052 109.281Z" fill="#383836"></path> <path d="M71.8116 111.209C71.9234 113.127 72.4773 114.989 73.4457 116.651C74.414 118.313 75.75 119.719 77.3608 120.766C80.424 122.531 82.9099 121.125 82.9099 117.615C82.8122 115.692 82.2442 113.825 81.2806 112.163C80.3216 110.501 78.9715 109.091 77.3608 108.043C74.2976 106.279 71.8116 107.694 71.8116 111.209Z" fill="white"></path> <path d="M80.5591 118.504C78.9484 117.456 77.6076 116.046 76.6533 114.384C75.685 112.722 75.131 110.86 75.0193 108.946C75.01 108.378 75.0891 107.811 75.2474 107.266C73.2316 107.066 71.8118 108.518 71.8118 111.176C71.9235 113.09 72.4775 114.956 73.4411 116.618C74.4141 118.276 75.7502 119.686 77.3609 120.729C79.8841 122.181 81.9976 121.483 82.6726 119.244C81.9184 119.151 81.2015 118.899 80.5591 118.504Z" fill="#595959"></path> <path d="M75.2649 112.377C75.3208 113.345 75.6048 114.286 76.0889 115.119C76.5731 115.957 77.2481 116.669 78.0581 117.195C79.599 118.084 80.8513 117.363 80.8513 115.598C80.7955 114.63 80.5115 113.69 80.0273 112.857C79.5432 112.019 78.8682 111.306 78.0581 110.78C76.5498 109.891 75.2649 110.622 75.2649 112.377Z" fill="#383836"></path> <path d="M1.90207 68.9712C1.90207 74.7578 5.98944 81.792 11.0218 84.7295C16.0542 87.6716 20.1416 85.316 20.1416 79.5435C20.1416 73.7662 16.0542 66.7181 11.0218 63.7806C5.98944 60.8431 1.90207 63.194 1.90207 68.9712Z" fill="#383836"></path> <path d="M1.06882 69.5995C1.06882 75.3768 5.14687 82.4249 10.1886 85.3624C15.2303 88.2999 19.3083 85.9444 19.3083 80.1578C19.3083 74.3759 15.221 67.351 10.1886 64.3996C5.15619 61.4527 1.06882 63.8269 1.06882 69.5995Z" fill="#383836"></path> <path d="M4.7831 71.5268C4.88552 73.4402 5.44881 75.3069 6.40315 76.9689C7.37612 78.6262 8.71219 80.0367 10.3229 81.0842C13.3861 82.8625 15.8721 81.4427 15.8721 77.9325C15.7603 76.0146 15.211 74.1478 14.2381 72.4858C13.2744 70.8239 11.9337 69.4087 10.3229 68.3612C7.25973 66.5968 4.7831 68.0121 4.7831 71.5268Z" fill="white"></path> <path d="M13.5218 78.8637C11.9111 77.8163 10.5703 76.4057 9.61601 74.7438C8.6477 73.0818 8.09372 71.2151 7.98199 69.2971C7.97268 68.7291 8.05182 68.1658 8.2101 67.6211C6.19435 67.4163 4.83034 68.8688 4.83034 71.527C4.93276 73.4403 5.49605 75.3071 6.45039 76.969C7.4187 78.6263 8.75943 80.0369 10.3702 81.0843C12.8887 82.5461 15.0069 81.8478 15.6819 79.5993C14.9184 79.5062 14.1829 79.2594 13.5218 78.8637Z" fill="#595959"></path> <path d="M7.94977 72.3462C8.00563 73.3145 8.28961 74.2502 8.7691 75.0882C9.25326 75.9261 9.92828 76.6338 10.743 77.1645C12.2839 78.0536 13.5315 77.346 13.5315 75.5677C13.4756 74.604 13.1963 73.6637 12.7122 72.8304C12.228 71.9924 11.553 71.2848 10.743 70.7587C9.19739 69.9068 7.94977 70.6144 7.94977 72.3462Z" fill="#383836"></path> <path d="M67.216 103.248C67.216 102.755 67.081 102.266 66.8343 101.842C66.5875 101.41 66.2384 101.056 65.8101 100.804L30.5181 80.428C30.2249 80.2884 29.9129 80.2139 29.5824 80.2139C29.2565 80.2139 28.9446 80.2884 28.6514 80.428C27.7389 80.8004 25.2716 82.0946 25.2716 82.7603L27.7296 85.102C27.7296 86.0842 27.9856 87.0432 28.4838 87.8951C28.9679 88.7424 29.6755 89.45 30.5181 89.9435L62.421 111.176C63.0635 111.544 65.6099 109.812 66.1825 109.328C66.4851 109.133 66.7458 108.867 66.9227 108.551C67.1183 108.234 67.216 107.88 67.23 107.517L67.216 103.248Z" fill="#383836"></path> <path d="M64.2686 104.994C64.2686 104.501 64.1336 104.012 63.8961 103.584C63.6494 103.155 63.2863 102.801 62.858 102.55L27.5707 82.1737C27.2867 82.0154 26.9608 81.9316 26.635 81.9316C26.3091 81.9316 25.9832 82.0154 25.6993 82.1737C25.4199 82.3413 25.1825 82.5787 25.0149 82.8627C24.8566 83.1467 24.7635 83.4679 24.7635 83.7984V86.8477C24.7775 87.8253 25.0382 88.7843 25.5177 89.6315C26.0158 90.4788 26.7141 91.1818 27.5567 91.6752L61.1402 111.06C61.4521 111.242 61.8152 111.339 62.1876 111.339C62.5461 111.339 62.9045 111.242 63.2211 111.06C63.5377 110.878 63.8077 110.618 63.9846 110.301C64.1661 109.985 64.2686 109.626 64.2686 109.258V104.994Z" fill="#595959"></path> <path d="M37.4398 93.5466C37.0488 93.3185 36.7229 92.988 36.5088 92.5923C36.2807 92.1966 36.1689 91.745 36.1829 91.2934V89.9201C36.1689 89.8456 36.1689 89.7712 36.1829 89.6967L35.8431 89.5058C35.7174 89.4267 35.5731 89.3848 35.4287 89.3848C35.2705 89.3848 35.1215 89.4267 35.0004 89.5058C34.8748 89.5756 34.763 89.6827 34.6932 89.8131C34.6141 89.9434 34.5815 90.0877 34.5815 90.2367V91.61C34.5722 92.0616 34.6839 92.5085 34.9073 92.9042C35.1355 93.2999 35.4474 93.6304 35.8431 93.8632L51.0147 102.62C51.1637 102.704 51.322 102.746 51.4896 102.746C51.6572 102.746 51.8155 102.704 51.9644 102.62C52.1413 102.517 52.281 102.359 52.3555 102.168L37.4398 93.5466Z" fill="#383836"></path> <path d="M20.355 51.6021L7.97185 59.0087L51.4106 83.5049L56.8853 81.2518L57.9281 87.1826L83.2251 101.447L101.325 103.541C99.5373 97.2381 94.2815 93.6023 81.9728 86.2702L20.355 51.6021Z" fill="#383836"></path> <path d="M113.764 43.3155L67.7466 20.146L36.1463 37.6872L89.3705 57.8727L113.764 43.3155Z" fill="#FCC917"></path> <path d="M97.3181 42.3148L73.3991 30.2808L56.9658 39.4005L84.6463 49.889L97.3181 42.3148Z" fill="#616161"></path> <path d="M95.2595 43.5531L75.5024 33.6094L61.9368 41.1417L84.7804 49.8099L95.2595 43.5531Z" fill="#595959"></path> <path d="M93.9756 41.356L78.2267 33.4326L67.3984 39.4333L85.6239 46.3465L93.9756 41.356Z" fill="white"></path> <path d="M77.6074 62.8028L30.5654 41.1416L18.6432 47.3704L47.967 73.7195L53.181 77.4344L77.6074 62.8028Z" fill="white"></path> <path d="M52.3948 44.0233L41.9482 28.6934L30.026 34.9175L59.3498 61.262L64.5498 64.9769L52.3948 44.0233Z" fill="#FCC917"></path> <path d="M26.2416 47.7383L29.8588 35.02L89.363 57.1747L94.6189 104.859L82.6408 99.5241L58.1119 75.3211L26.2416 47.7383Z" fill="#F5BA00"></path> <path d="M65.6432 65.6703L62.7522 67.2391L96.6569 106.726L99.2126 104.184L70.9316 64.7485L65.6432 65.6703Z" fill="#595959"></path> <path d="M67.928 53.0637L64.8973 55.4845L102.643 93.9839L105.008 85.9349L73.0814 52.6587L67.928 53.0637Z" fill="#595959"></path> <path d="M113.812 43.3154L89.1712 57.2395L93.333 100.613L125.622 82.029L113.812 43.3154Z" fill="#F5BA00"></path> <path d="M43.8689 35.2756L37.9706 26.4863L34.94 38.767L43.8689 43.2687V35.2756Z" fill="#F5BA00"></path> <path d="M39.4556 19.1685V52.5145L51.5129 59.5394L57.5369 45.4757L55.7353 19.5176L39.4556 19.1685Z" fill="#595959"></path> <path d="M40.1681 40.0615L56.3872 46.1088V47.5799L40.1681 41.5373V40.0615Z" fill="#4A666B"></path> <path d="M79.6216 9.21582L54.8879 23.233L57.9418 45.4994L85.9622 29.2802L79.6216 9.21582Z" fill="#FCC917"></path> <path d="M77.7891 9.88135L56.5237 21.9246L59.4379 43.4741L83.9109 29.4476L77.7891 9.88135Z" fill="#595959"></path> <path d="M62.7372 67.193L88.1086 115.106L94.0535 108.7L95.2825 105.851L67.0014 66.4062L62.7372 67.193Z" fill="#FCC917"></path> <path d="M65.0239 55.4753L95.4976 100.921L92.8301 82.3226L69.5954 55.2705L65.0239 55.4753Z" fill="#FCC917"></path> <path d="M76.6759 70.5678C76.7317 71.5036 77.0018 72.4113 77.4719 73.2214C77.9328 74.0314 78.5892 74.7204 79.376 75.2278C80.8703 76.0984 82.09 75.4094 82.0761 73.7009C82.0202 72.7651 81.7502 71.8527 81.2893 71.0473C80.8145 70.2373 80.1627 69.5483 79.376 69.0362C77.877 68.1703 76.6759 68.8593 76.6759 70.5678Z" fill="#595959"></path> <path d="M78.2731 71.1449C78.3057 71.6896 78.464 72.2203 78.734 72.6952C79.0133 73.1653 79.3857 73.5704 79.8466 73.8683C80.7265 74.3757 81.4341 73.9707 81.4341 72.9652C81.4015 72.4205 81.2432 71.8898 80.9732 71.4149C80.6939 70.9401 80.3122 70.5397 79.8466 70.2418C78.9807 69.7344 78.2731 70.0975 78.2731 71.1449Z" fill="white"></path> <path d="M140.378 39.4888L84.7794 70.9075L114.62 137.371L128.558 147.93L187.918 113.75L173.044 103.588L140.378 39.4888Z" fill="#FCC917"></path> <path d="M137.189 36.5049L143.292 84.1008L160.717 102.145L176.177 107.536L145.625 38.6231L137.189 36.5049Z" fill="#FFE373"></path> <path d="M164.852 103.337L186.42 114.677L187.943 113.741L186.42 110.836L172.911 100.865L164.852 103.337Z" fill="white"></path> <path d="M135.896 38.7998L141.817 84.9014L159.247 102.945L174.702 108.336L144.219 40.0847L135.896 38.7998Z" fill="#F5BA00"></path> <path d="M78.1697 71.0986L84.2588 118.681L101.688 136.729L117.153 142.12L86.6563 73.8685L78.1697 71.0986Z" fill="#F5BA00"></path> <path d="M113.979 138.61L116.502 139.485L86.005 71.2337L83.519 70.4097L113.979 138.61Z" fill="white"></path> <path d="M109.477 137.707L128.4 147.884L130.011 147.083L129.401 144.62L115.892 134.644L109.477 137.707Z" fill="white"></path> <path d="M137.531 36.4814L77.994 71.0285L84.9025 73.575L145.65 38.5438L137.531 36.4814Z" fill="white"></path> <path d="M105.832 137.93L113.011 142.93L128.536 148.027L127.387 145.429L113.891 135.444L105.832 137.93Z" fill="#F5BA00"></path> <path d="M143.046 37.9668L145.625 38.6232L176.174 107.536L173.464 106.591L143.046 37.9668Z" fill="white"></path> <path d="M159.249 102.811L170.57 109.147L186.468 114.542L184.946 111.637L170.356 100.749L159.249 102.811Z" fill="#F5BA00"></path> <path d="M53.1895 77.4346L12.6184 53.4598L18.6423 47.3008L53.1895 77.4346Z" fill="#595959"></path> <path d="M37.972 18.27H40.2019L39.4896 53.3432H37.2644L37.972 18.27Z" fill="#F5BA00"></path> <path d="M55.3311 21.2865L37.0822 14.8901V20.8815L55.1728 24.3684L55.3311 21.2865Z" fill="#FCC917"></path> <path d="M55.028 21.231L81.0745 6.39453V9.4298L55.028 24.2709V21.231Z" fill="#FCC917"></path> <path d="M63.1568 0.0351562L81.1077 6.61777L55.1403 21.4775L37.0498 14.8437L62.9333 0.0351562H63.1568Z" fill="#F5BA00"></path> <path d="M39.1298 38.5303L57.793 45.476V47.1752L39.1298 40.2295V38.5303Z" fill="#F5BA00"></path> <path d="M67.6999 57.6119C67.7325 58.2357 67.9141 58.8456 68.2306 59.3902C68.5472 59.9302 68.9848 60.3911 69.5155 60.731C70.5164 61.3175 71.3264 60.852 71.3264 59.7068C71.2938 59.0783 71.1123 58.4685 70.7957 57.9238C70.4838 57.3791 70.0415 56.9183 69.5155 56.5784C68.51 56.0012 67.6999 56.462 67.6999 57.6119Z" fill="#595959"></path> <path d="M68.7705 57.9937C68.7938 58.3615 68.8962 58.7153 69.0871 59.0318C69.2686 59.3484 69.5247 59.6184 69.8273 59.8186C70.4138 60.1538 70.8887 59.8838 70.8887 59.2227C70.8654 58.8549 70.763 58.4965 70.5721 58.1799C70.3906 57.8587 70.1345 57.5887 69.8273 57.3885C69.2453 57.0487 68.7705 57.3187 68.7705 57.9937Z" fill="white"></path> <path d="M64.485 68.8593C64.5176 69.4877 64.7085 70.0976 65.0251 70.6376C65.3416 71.1823 65.7792 71.6478 66.3053 71.9876C67.3108 72.5603 68.1208 72.0994 68.1208 70.9542C68.0743 70.3257 67.8834 69.7159 67.5576 69.1758C67.241 68.6358 66.7941 68.1796 66.2634 67.8444C65.2951 67.2485 64.485 67.7094 64.485 68.8593Z" fill="#595959"></path> <path d="M65.5642 69.241C65.5875 69.6087 65.6852 69.9625 65.8808 70.2791C66.0577 70.5956 66.3184 70.8657 66.621 71.0658C67.2075 71.401 67.6824 71.131 67.6824 70.47C67.6591 70.1022 67.5567 69.7437 67.3751 69.4225C67.1843 69.1059 66.9236 68.8359 66.621 68.6311C66.039 68.2959 65.5642 68.5659 65.5642 69.241Z" fill="white"></path> <path d="M72.249 81.9503C72.3048 82.886 72.5748 83.7938 73.0497 84.6038C73.5199 85.4138 74.1763 86.1028 74.963 86.6102C76.462 87.4761 77.6631 86.7918 77.6631 85.0786C77.6072 84.1429 77.3372 83.2351 76.867 82.4251C76.3922 81.6151 75.7404 80.9261 74.9537 80.4187C73.464 79.5528 72.249 80.2278 72.249 81.9503Z" fill="#595959"></path> <path d="M73.8512 82.4805C73.8838 83.0252 74.0421 83.5559 74.3214 84.0307C74.5914 84.5056 74.9778 84.9059 75.4387 85.2039C76.3046 85.7113 77.0122 85.3063 77.0122 84.3007C76.9796 83.7561 76.8213 83.2254 76.5513 82.7552C76.272 82.2803 75.8996 81.88 75.4387 81.5774C74.5589 81.1258 73.8512 81.5215 73.8512 82.4805Z" fill="white"></path> <path d="M80.9864 77.4808C81.0189 78.1278 81.2098 78.761 81.5357 79.3196C81.8616 79.8829 82.3224 80.3577 82.8671 80.7116C83.8913 81.3074 84.7339 80.8233 84.7339 79.585C84.7013 78.9379 84.5104 78.3094 84.1846 77.7508C83.854 77.1921 83.3932 76.7173 82.8531 76.3681C81.829 75.8235 80.9864 76.2983 80.9864 77.4808Z" fill="#595959"></path> <path d="M82.0984 77.8766C82.1217 78.2584 82.2334 78.6261 82.4382 78.9567C82.6291 79.2872 82.8991 79.5619 83.225 79.7667C83.8209 80.1158 84.3516 79.8365 84.3516 79.1336C84.3283 78.7565 84.2026 78.3887 84.0117 78.0628C83.8209 77.737 83.5508 77.4577 83.225 77.2575C82.5825 76.9083 82.0891 77.1876 82.0984 77.8766Z" fill="white"></path> <path d="M86.0972 116.6C86.1298 117.247 86.3207 117.88 86.6465 118.439C86.9724 119.002 87.4333 119.477 87.9733 119.831C88.9975 120.427 89.8447 119.956 89.8447 118.704C89.8121 118.057 89.6213 117.429 89.2907 116.87C88.9649 116.311 88.504 115.836 87.964 115.487C86.9398 114.943 86.0972 115.417 86.0972 116.6Z" fill="#595959"></path> <path d="M87.2014 116.995C87.2201 117.377 87.3318 117.745 87.5366 118.075C87.7275 118.406 87.9975 118.681 88.3234 118.885C88.9192 119.234 89.45 118.955 89.45 118.266C89.4267 117.884 89.3056 117.517 89.1148 117.186C88.9192 116.856 88.6539 116.581 88.3234 116.376C87.6483 116.027 87.2014 116.306 87.2014 116.995Z" fill="white"></path> <path d="M102.611 132.381C102.658 133.033 102.848 133.671 103.184 134.229C103.523 134.793 103.984 135.268 104.534 135.612C105.572 136.213 106.405 135.738 106.405 134.555C106.372 133.908 106.177 133.275 105.851 132.716C105.539 132.153 105.078 131.678 104.534 131.325C103.412 130.729 102.611 131.199 102.611 132.381Z" fill="#595959"></path> <path d="M103.714 132.777C103.737 133.159 103.858 133.527 104.049 133.857C104.245 134.183 104.515 134.462 104.84 134.667C105.446 135.016 105.967 134.737 105.967 134.048C105.944 133.666 105.832 133.294 105.627 132.968C105.436 132.637 105.166 132.363 104.84 132.158C104.198 131.809 103.714 132.088 103.714 132.777Z" fill="white"></path> <path d="M131.767 145.397L136.878 146.454L138.894 145.453L135.989 142.39L131.767 145.397Z" fill="#FCC917"></path> <path d="M139.803 140.714L144.915 141.771L146.921 140.77L144.016 137.707L139.803 140.714Z" fill="#FCC917"></path> <path d="M147.698 136.287L152.819 137.349L154.821 136.343L151.916 133.285L147.698 136.287Z" fill="#FCC917"></path> <path d="M154.257 132.143L159.383 133.205L161.385 132.19L158.48 129.131L154.257 132.143Z" fill="#FCC917"></path> <path d="M161.756 127.991L166.877 129.053L168.879 128.047L165.978 124.975L161.756 127.991Z" fill="#FCC917"></path> <path d="M168.051 124.379L173.172 125.436L175.174 124.435L172.269 121.362L168.051 124.379Z" fill="#FCC917"></path> </svg> 