<?xml version="1.0" encoding="UTF-8"?> <svg xmlns="http://www.w3.org/2000/svg" width="87" height="127" viewBox="0 0 87 127" fill="none"> <path d="M1.27919 103.75L14.7072 108.524L14.4673 113.931L7.9047 112.672L0.716909 105.331L1.27919 103.75Z" fill="#FCC917"></path> <path d="M28.3792 79.6041L6.78825 111.163C6.78825 111.163 22.0682 120.313 35.2642 106.114C39.4125 101.62 45.2083 88.4866 47.2216 77.7718L28.3792 79.6041Z" fill="white"></path> <path d="M30.1098 79.9537L10.0799 110.144C10.0799 110.144 23.7988 120.662 36.987 106.464C41.1746 101.95 46.5694 89.6384 48.5826 78.9235L30.1098 79.9537Z" fill="#F5BA00"></path> <path d="M7.31895 107.053L28.0055 114.21C27.7538 119.616 20.5071 117.241 20.5071 117.241L13.9641 115.995L6.77633 108.642L7.31895 107.053Z" fill="#FCC917"></path> <path d="M14.4289 111.383L31.2974 117.116C31.0457 122.522 27.6052 121.543 27.6052 121.543L21.0504 120.285L13.8626 112.944L14.4289 111.383Z" fill="#FCC917"></path> <path d="M47.3834 90.6922L27.2316 120.603C27.2316 120.603 40.4866 131.259 53.6747 117.041C57.8623 112.527 63.611 99.4095 65.6439 88.6986L47.3834 90.6922Z" fill="white"></path> <path d="M67.98 89.7449L47.2227 77.7718L28.3803 79.6041L29.7486 80.5439L46.3262 81.523L55.5193 87.0436L47.3839 90.8891L49.519 91.703L67.98 89.7449Z" fill="white"></path> <path d="M49.1442 91.5651L27.5415 123.132C27.5415 123.132 42.8214 132.285 56.0095 118.075C60.1972 113.573 65.9458 100.448 67.9669 89.7446L49.1442 91.5651Z" fill="#FCC917"></path> <path d="M22.0298 115.724L35.4656 120.497C35.4656 125.145 35.2258 125.341 35.2258 125.341L28.6632 124.606L21.4754 117.261L22.0298 115.724Z" fill="#FCC917"></path> <path d="M58.4565 81.2671L54.4812 84.9121L50.9267 83.0798L57.2494 75.369L58.4565 81.2671Z" fill="white"></path> <path d="M59.927 83.343L56.805 85.5096L54.3986 84.9906L60.7017 77.2798L59.927 83.343Z" fill="#FCC917"></path> <path d="M52.1652 76.5527C52.1652 79.7888 54.4418 81.0942 57.2611 79.4585C58.7395 78.4912 59.9663 77.1858 60.8511 75.6523C61.7397 74.1148 62.2509 72.3926 62.3413 70.6232C62.3413 67.3871 60.0686 66.0817 57.2611 67.7174C55.7669 68.6847 54.5401 69.9901 53.6554 71.5236C52.7707 73.0571 52.2556 74.7794 52.1652 76.5527Z" fill="white"></path> <path d="M79.322 5.29207L71.2495 12.4995L63.2163 7.72208L71.1473 0.671909L79.322 5.29207Z" fill="white"></path> <path d="M71.62 12.3225L62.1713 75.8055L54.1381 71.032L63.4492 7.69444L71.62 12.3225Z" fill="white"></path> <path d="M68.0383 78.605L86.7628 15.0669L79.2407 5.26429L71.1014 12.3223L61.1651 78.778L68.0383 78.605Z" fill="#FCC917"></path> <path d="M59.8231 81.1413C59.8231 84.3892 62.0998 85.6868 64.9191 84.0471C66.3975 83.0838 67.6243 81.7823 68.513 80.2527C69.3977 78.7192 69.901 77.0009 69.9993 75.2354C69.9993 71.9915 67.7265 70.6939 64.9191 72.3296C63.4367 73.293 62.1981 74.5945 61.3134 76.124C60.4365 77.6575 59.9253 79.3758 59.8231 81.1413Z" fill="#FCC917"></path> <path d="M64.6561 95.5756C64.5657 96.9361 64.1725 98.2573 63.4765 99.4369C62.7923 100.613 61.8486 101.615 60.7005 102.354C58.5143 103.617 56.7527 102.606 56.7527 100.109C56.8353 98.7488 57.2363 97.4237 57.9205 96.248C58.6047 95.0684 59.5641 94.0696 60.7005 93.3265C62.8828 92.0603 64.6561 93.067 64.6561 95.5756Z" fill="#595959"></path> <path d="M62.3099 96.4096C62.2706 97.2078 62.0386 97.9863 61.6375 98.6783C61.2364 99.3743 60.682 99.9641 60.0057 100.401C58.7278 101.136 57.7133 100.546 57.7133 99.0834C57.7526 98.2812 57.9846 97.5027 58.3778 96.8106C58.7789 96.1147 59.3412 95.5288 60.0057 95.0923C61.2836 94.357 62.3099 94.9468 62.3099 96.4096Z" fill="white"></path> <path d="M68.8365 76.1553C68.7657 77.4175 68.4 78.6443 67.767 79.7335C67.1339 80.8266 66.2492 81.7545 65.1915 82.4427C63.1979 83.6026 61.5661 82.6746 61.5661 80.3705C61.6369 79.1083 62.0104 77.8815 62.6356 76.7923C63.2687 75.6992 64.1534 74.7712 65.1993 74.0831C67.2047 72.9192 68.8365 73.8511 68.8365 76.1553Z" fill="#595959"></path> <path d="M66.6822 76.9298C66.6389 77.6691 66.4187 78.3847 66.0452 79.0217C65.6756 79.6626 65.1526 80.2013 64.5274 80.6024C63.3478 81.2787 62.4041 80.7361 62.4041 79.3913C62.4434 78.6521 62.6558 77.9365 63.0254 77.2995C63.3989 76.6625 63.914 76.1198 64.5274 75.7188C65.7346 75.0307 66.6822 75.5733 66.6822 76.9298Z" fill="white"></path> </svg> 